<svg width="794" height="526" viewBox="0 0 794 526" fill="none" xmlns="http://www.w3.org/2000/svg">
<path d="M112 83C112 80.2386 114.239 78 117 78H672C674.761 78 677 80.2386 677 83V455C677 457.761 674.761 460 672 460H117C114.239 460 112 457.761 112 455V83Z" fill="#2F4777"/>
<mask id="mask0_34_662" style="mask-type:alpha" maskUnits="userSpaceOnUse" x="117" y="78" width="565" height="382">
<path d="M117 83C117 80.2386 119.239 78 122 78H677C679.761 78 682 80.2386 682 83V455C682 457.761 679.761 460 677 460H122C119.239 460 117 457.761 117 455V83Z" fill="#2F4777"/>
</mask>
<g mask="url(#mask0_34_662)">
<path d="M624.423 383.409C652.478 259.248 574.569 135.853 450.409 107.798C326.248 79.7432 202.853 157.652 174.798 281.812C146.743 405.973 224.652 529.368 348.812 557.423C472.973 585.478 596.368 507.569 624.423 383.409Z" fill="#2F4777"/>
<mask id="mask1_34_662" style="mask-type:luminance" maskUnits="userSpaceOnUse" x="169" y="102" width="462" height="462">
<path d="M624.423 383.409C652.478 259.248 574.569 135.853 450.409 107.798C326.248 79.7432 202.853 157.652 174.798 281.812C146.743 405.973 224.652 529.368 348.812 557.423C472.973 585.478 596.368 507.569 624.423 383.409Z" fill="white"/>
</mask>
<g mask="url(#mask1_34_662)">
<path d="M353.641 136.406C353.641 136.406 386.016 92.5962 443.38 121.828C506.271 153.877 472.286 222.961 472.286 222.961L337.131 197.357L353.641 136.406Z" fill="#1E0B02"/>
<path d="M326.61 223.299C326.61 223.299 291.255 153.877 353.641 136.406L364.855 173.64L326.61 223.299Z" fill="#1E0B02"/>
<path d="M356.584 255.34C356.975 269.204 346.055 280.765 332.191 281.156C318.327 281.547 306.766 270.627 306.374 256.763C305.983 242.899 316.904 231.338 330.772 230.946C344.632 230.551 356.193 241.476 356.584 255.34Z" fill="#E8B499"/>
<path d="M317.218 252.519C317.218 252.519 327.205 247.656 336.724 265.006" stroke="#C47268" stroke-width="0.6887" stroke-miterlimit="10" stroke-linecap="round" stroke-linejoin="round"/>
<path d="M448.279 256.049C448.279 269.921 459.522 281.164 473.394 281.164C487.267 281.164 498.509 269.921 498.509 256.049C498.509 242.177 487.267 230.934 473.394 230.934C459.526 230.934 448.279 242.177 448.279 256.049Z" fill="#E8B499"/>
<path d="M487.548 252.116C487.548 252.116 477.426 247.534 468.405 265.148" stroke="#C47268" stroke-width="0.6887" stroke-miterlimit="10" stroke-linecap="round" stroke-linejoin="round"/>
<path d="M434.656 313.922C434.656 313.922 420.495 323.914 407.593 326.38C394.691 328.846 382.143 321.358 381.984 321.264C381.825 321.174 366.918 312.597 366.918 312.597L360.746 395.264L362.417 396.641C384.296 414.688 415.835 414.904 437.958 397.155L441.195 394.558L434.656 313.922Z" fill="#E8B499"/>
<path d="M360.746 303.907C360.746 303.907 374.818 349.971 407.201 349.462C433.82 349.042 438.113 303.907 438.113 303.907H360.746Z" fill="#1E0B02"/>
<path d="M470.251 212.326C470.394 240.714 466.464 265.234 462.506 282.64C458.629 299.684 443.636 311.636 427.926 321.289L425.064 323.046C408.44 333.262 394.694 333.608 377.712 323.931C360.587 314.172 344.664 301.249 340.894 282.999C334.033 249.809 333.116 213.015 333.116 213.015C333.116 213.015 323.475 136.223 397.438 137.242C471.401 138.269 470.251 212.326 470.251 212.326Z" fill="#E8B499"/>
<path d="M375.764 234.852C375.764 238.158 373.085 240.837 369.779 240.837C366.473 240.837 363.795 238.158 363.795 234.852C363.795 231.546 366.478 228.868 369.779 228.868C373.081 228.868 375.764 231.546 375.764 234.852Z" fill="#1E0B02"/>
<path d="M434.489 234.852C434.489 238.158 431.811 240.837 428.505 240.837C425.199 240.837 422.52 238.158 422.52 234.852C422.52 231.546 425.203 228.868 428.505 228.868C431.811 228.868 434.489 231.546 434.489 234.852Z" fill="#1E0B02"/>
<path d="M393.712 250.509V260.101H401.478" stroke="#C47268" stroke-width="0.6887" stroke-miterlimit="10" stroke-linecap="round" stroke-linejoin="round"/>
<path d="M347.477 209.554L386.583 206.028C386.583 206.028 383.081 195.894 367.268 197.536C351.093 199.22 347.477 209.554 347.477 209.554Z" fill="black"/>
<path d="M448.279 209.554L409.174 206.028C409.174 206.028 412.676 195.894 428.488 197.536C444.664 199.22 448.279 209.554 448.279 209.554Z" fill="black"/>
<path d="M380.325 273.77H418.904C418.904 273.77 417.09 285.587 399.044 285.587C380.994 285.591 380.325 273.77 380.325 273.77Z" fill="white"/>
<path d="M335.631 249.36C335.631 249.36 338.529 155.296 337.327 152.622C337.327 152.622 303.973 183.436 335.631 249.36Z" fill="#1E0B02"/>
<path d="M467.463 248.691L462.457 146.56C462.457 146.56 494.527 178.426 467.463 248.691Z" fill="#1E0B02"/>
<path d="M366.58 144.29C366.58 144.29 343.633 150.507 344.416 173.037C345.199 195.568 329.961 217.711 329.961 217.711L323.002 195.197C323.002 195.197 317.63 153.238 366.58 144.29Z" fill="#1E0B02"/>
<path d="M360.791 146.153C360.791 146.153 377.973 136.406 395.029 157.852C409.594 176.168 448.002 195.029 470.741 177.077C470.741 177.077 456.257 125.236 399.745 126.292C343.234 127.348 360.791 146.153 360.791 146.153Z" fill="#1E0B02"/>
<path d="M594.64 569.549H205.747C212.84 540.117 220.137 513.946 227.353 493.564C238.033 463.48 253.401 445.87 266.12 435.842C278.797 425.773 288.825 423.245 288.825 423.245L315.811 411.954L486.533 412.117L511.562 423.245C511.562 423.245 551.674 433.355 573.035 493.564C580.25 513.946 587.547 540.117 594.64 569.549Z" fill="#EF758D"/>
<path d="M403.231 375.995L486.549 412.112C486.549 412.112 400.944 489.475 315.82 411.941L403.231 375.995Z" fill="#E8B499"/>
<path d="M315.82 411.941C315.82 411.941 345.48 447.035 400.968 447.035C456.457 447.035 486.549 412.116 486.549 412.116" stroke="white" stroke-width="1.9384" stroke-miterlimit="10"/>
</g>
</g>
<path d="M112 70C112 67.2386 114.239 65 117 65H672C674.761 65 677 67.2386 677 70V105H112V70Z" fill="#111123"/>
<circle cx="153.5" cy="84.5" r="6.5" fill="#DE9756"/>
<circle cx="176.5" cy="84.5" r="6.5" fill="#59DE56"/>
<path d="M227 504C272.84 504 310 466.84 310 421C310 375.16 272.84 338 227 338C181.16 338 144 375.16 144 421C144 466.84 181.16 504 227 504Z" fill="#83A9F4"/>
<mask id="mask2_34_662" style="mask-type:luminance" maskUnits="userSpaceOnUse" x="144" y="338" width="166" height="166">
<path d="M227 504C272.84 504 310 466.84 310 421C310 375.16 272.84 338 227 338C181.16 338 144 375.16 144 421C144 466.84 181.16 504 227 504Z" fill="white"/>
</mask>
<g mask="url(#mask2_34_662)">
<path d="M211.295 393.767C211.436 398.76 207.504 402.923 202.511 403.064C197.518 403.205 193.355 399.272 193.214 394.279C193.073 389.287 197.006 385.124 201.999 384.983C206.993 384.842 211.154 388.775 211.295 393.767Z" fill="#E8B499"/>
<path d="M197.121 392.752C197.121 392.752 200.717 391 204.145 397.248" stroke="#C47268" stroke-width="0.6887" stroke-miterlimit="10" stroke-linecap="round" stroke-linejoin="round"/>
<path d="M244.318 394.023C244.318 399.018 248.366 403.067 253.362 403.067C258.357 403.067 262.406 399.018 262.406 394.023C262.406 389.027 258.357 384.979 253.362 384.979C248.366 384.979 244.318 389.029 244.318 394.023Z" fill="#E8B499"/>
<path d="M258.459 392.608C258.459 392.608 254.814 390.958 251.565 397.301" stroke="#C47268" stroke-width="0.6887" stroke-miterlimit="10" stroke-linecap="round" stroke-linejoin="round"/>
<path d="M239.412 414.864C239.412 414.864 234.312 418.462 229.666 419.35C225.02 420.238 220.501 417.541 220.444 417.507C220.387 417.475 215.018 414.386 215.018 414.386L212.796 444.156L213.398 444.652C221.276 451.151 232.634 451.229 240.601 444.837L241.766 443.902L239.412 414.864Z" fill="#E8B499"/>
<path d="M212.796 411.257C212.796 411.257 217.863 427.845 229.525 427.661C239.111 427.51 240.657 411.257 240.657 411.257H212.796Z" fill="#1E0B02"/>
<path d="M252.947 372.888C252.998 383.111 250.865 397.331 249.44 403.6C248.043 409.737 242.644 414.042 236.987 417.518L235.956 418.15C229.97 421.829 225.02 421.954 218.904 418.469C212.737 414.955 207.003 410.301 205.645 403.729C203.174 391.777 201.297 385.072 200.632 378.733C199.538 368.296 199.967 345.845 226.725 345.851C253.365 345.855 252.947 372.888 252.947 372.888Z" fill="#E8B499"/>
<path d="M218.202 386.389C218.202 387.58 217.238 388.544 216.047 388.544C214.857 388.544 213.892 387.58 213.892 386.389C213.892 385.199 214.858 384.234 216.047 384.234C217.238 384.234 218.202 385.199 218.202 386.389Z" fill="#1E0B02"/>
<path d="M239.352 386.389C239.352 387.58 238.387 388.544 237.197 388.544C236.006 388.544 235.042 387.58 235.042 386.389C235.042 385.199 236.007 384.234 237.197 384.234C238.386 384.234 239.352 385.199 239.352 386.389Z" fill="#1E0B02"/>
<path d="M224.666 392.028V395.482H227.464" stroke="#C47268" stroke-width="0.6887" stroke-miterlimit="10" stroke-linecap="round" stroke-linejoin="round"/>
<path d="M208.017 377.279L222.1 376.009C222.1 376.009 220.839 372.36 215.144 372.953C209.318 373.558 208.017 377.279 208.017 377.279Z" fill="black"/>
<path d="M244.318 377.279L230.234 376.009C230.234 376.009 231.495 372.36 237.189 372.953C243.016 373.558 244.318 377.279 244.318 377.279Z" fill="black"/>
<path d="M297.023 506.918H156.977C159.531 496.319 162.159 486.895 164.757 479.555C168.603 468.721 174.138 462.379 178.718 458.768C183.283 455.142 186.895 454.232 186.895 454.232L196.613 450.166L258.092 450.225L267.105 454.232C267.105 454.232 281.55 457.873 289.243 479.555C291.842 486.895 294.47 496.319 297.023 506.918Z" fill="white"/>
<path d="M228.095 437.217L258.099 450.223C258.099 450.223 227.272 478.082 196.617 450.161L228.095 437.217Z" fill="#E8B499"/>
<path d="M196.617 450.161C196.617 450.161 207.298 462.799 227.28 462.799C247.263 462.799 258.099 450.224 258.099 450.224" stroke="white" stroke-width="1.9384" stroke-miterlimit="10"/>
<path d="M250.14 391.631C250.14 391.631 249.669 391.382 248.017 394.023C246.366 396.664 245.028 403.742 245.028 403.742C245.028 403.742 243.462 400.439 239.33 398.317C235.557 396.377 227.633 397.45 226.284 397.652C224.19 397.288 219.239 396.677 216.047 398.317C211.916 400.439 210.349 403.742 210.349 403.742C210.349 403.742 209.011 396.665 207.36 394.023C205.708 391.38 205.236 391.631 205.236 391.631C205.236 391.631 204.371 405.394 208.067 413.572C211.313 420.755 223.765 423.727 226.725 423.874C226.725 423.874 243.612 421.752 247.308 413.572C251.005 405.394 250.14 391.631 250.14 391.631Z" fill="#A74B22"/>
<path d="M219.846 400.406H233.74C233.74 400.406 233.086 404.661 226.588 404.661C220.087 404.661 219.846 400.406 219.846 400.406Z" fill="white"/>
</g>
<rect x="572" y="279" width="142" height="142" rx="5" fill="#111123"/>
<mask id="mask3_34_662" style="mask-type:alpha" maskUnits="userSpaceOnUse" x="572" y="279" width="142" height="142">
<rect x="572" y="279" width="142" height="142" rx="5" fill="#111123"/>
</mask>
<g mask="url(#mask3_34_662)">
<mask id="mask4_34_662" style="mask-type:luminance" maskUnits="userSpaceOnUse" x="565" y="291" width="156" height="156">
<path d="M698.156 423.371C728.429 393.097 728.429 344.015 698.156 313.742C667.883 283.468 618.8 283.468 588.527 313.742C558.253 344.015 558.253 393.097 588.527 423.371C618.8 453.644 667.883 453.644 698.156 423.371Z" fill="white"/>
</mask>
<g mask="url(#mask4_34_662)">
<path d="M718.312 450.195H568.742C575.638 419.236 594.148 413.053 594.148 413.053L629.823 396.367L643.342 396.244H643.712L657.244 396.367L692.92 413.053C692.92 413.053 711.415 419.236 718.312 450.195Z" fill="#4570B4"/>
<path d="M628.419 349.298C628.551 353.961 624.878 357.85 620.215 357.981C615.552 358.113 611.663 354.44 611.532 349.777C611.4 345.114 615.073 341.225 619.736 341.094C624.399 340.962 628.286 344.635 628.419 349.298Z" fill="#C67D69"/>
<path d="M615.179 348.351C615.179 348.351 618.538 346.715 621.739 352.551" stroke="#A8523F" stroke-width="0.7482" stroke-miterlimit="10" stroke-linecap="round" stroke-linejoin="round"/>
<path d="M667.707 357.985C672.372 357.985 676.154 354.203 676.154 349.538C676.154 344.873 672.372 341.091 667.707 341.091C663.042 341.091 659.26 344.873 659.26 349.538C659.26 354.203 663.042 357.985 667.707 357.985Z" fill="#C67D69"/>
<path d="M672.467 348.215C672.467 348.215 669.063 346.674 666.029 352.598" stroke="#A8523F" stroke-width="0.7482" stroke-miterlimit="10" stroke-linecap="round" stroke-linejoin="round"/>
<path d="M654.678 369.002C654.678 369.002 649.915 372.362 645.575 373.192C641.236 374.021 637.016 371.503 636.962 371.471C636.909 371.441 631.895 368.556 631.895 368.556L629.819 396.36L630.381 396.823C637.74 402.893 648.348 402.966 655.788 396.996L656.877 396.123L654.678 369.002Z" fill="#C67D69"/>
<path d="M629.819 365.633C629.819 365.633 634.552 381.126 645.444 380.955C654.397 380.814 655.84 365.633 655.84 365.633H629.819Z" fill="#1E0B02"/>
<path d="M666.65 334.832C666.698 344.38 665.376 352.627 664.044 358.481C662.74 364.214 659.009 368.234 653.724 371.482L652.761 372.073C647.17 375.509 639.924 375.625 634.212 372.37C628.452 369.088 624.409 364.742 623.139 358.604C620.832 347.44 620.523 335.065 620.523 335.065C620.523 335.065 617.281 309.237 642.157 309.58C667.037 309.922 666.65 334.832 666.65 334.832Z" fill="#C67D69"/>
<path d="M632.856 344.42C633.967 344.42 634.869 343.519 634.869 342.407C634.869 341.295 633.967 340.394 632.856 340.394C631.744 340.394 630.843 341.295 630.843 342.407C630.843 343.519 631.744 344.42 632.856 344.42Z" fill="#1E0B02"/>
<path d="M652.609 344.42C653.721 344.42 654.622 343.519 654.622 342.407C654.622 341.295 653.721 340.394 652.609 340.394C651.497 340.394 650.596 341.295 650.596 342.407C650.596 343.519 651.497 344.42 652.609 344.42Z" fill="#1E0B02"/>
<path d="M640.906 345.348V350.9H644.494" stroke="#A8523F" stroke-width="0.7482" stroke-miterlimit="10" stroke-linecap="round" stroke-linejoin="round"/>
<path d="M625.356 333.9L638.51 332.714C638.51 332.714 637.332 329.305 632.014 329.858C626.572 330.424 625.356 333.9 625.356 333.9Z" fill="black"/>
<path d="M659.26 333.9L646.107 332.714C646.107 332.714 647.285 329.305 652.603 329.858C658.044 330.424 659.26 333.9 659.26 333.9Z" fill="black"/>
<path d="M636.404 355.498H649.38C649.38 355.498 648.77 359.473 642.7 359.473C636.63 359.473 636.404 355.498 636.404 355.498Z" fill="white"/>
<path d="M621.372 347.288C621.372 347.288 625.054 319.354 623.253 314.751C623.253 314.751 610.724 325.115 621.372 347.288Z" fill="#1E0B02"/>
<path d="M665.711 347.063C665.711 347.063 661.566 320.388 662.715 312.713C662.715 312.713 674.815 323.429 665.711 347.063Z" fill="#1E0B02"/>
<path d="M661.85 306.817L650.38 304.558L649.369 301.973L643.316 303.166L637.263 301.973L636.252 304.558L624.783 306.817L623.253 314.809L623.63 324.023C623.63 324.023 625.445 313.572 631.766 315.654C633.256 316.145 635.041 316.958 637.127 317.506C639.075 318.058 640.933 318.309 642.685 318.349C642.892 318.356 643.107 318.349 643.317 318.351C643.528 318.349 643.742 318.356 643.949 318.349C645.701 318.311 647.558 318.058 649.506 317.506C651.592 316.958 653.415 316.312 654.867 315.654C660.726 312.998 662.884 323.547 662.884 323.547L663.38 314.809L661.85 306.817Z" fill="#1E0B02"/>
<path d="M629.819 396.361L621.849 400.023C621.849 400.023 621.763 413.386 643.421 412.692C665.629 411.982 665.497 400.225 665.497 400.225L656.877 396.123L629.819 396.361Z" fill="#C67D69"/>
<path d="M620.865 321.846C620.865 324.626 618.611 326.881 615.829 326.881C613.048 326.881 610.793 324.627 610.793 321.846C610.793 319.065 613.047 316.81 615.829 316.81C618.609 316.811 620.865 319.065 620.865 321.846Z" fill="#1E0B02"/>
<path d="M620.956 330.595C620.956 332.936 619.059 334.832 616.72 334.832C614.379 334.832 612.483 332.935 612.483 330.595C612.483 328.255 614.381 326.359 616.72 326.359C619.059 326.359 620.956 328.255 620.956 330.595Z" fill="#1E0B02"/>
<path d="M674.284 329.888C674.284 332.228 672.386 334.126 670.047 334.126C667.707 334.126 665.809 332.228 665.809 329.888C665.809 327.548 667.707 325.651 670.047 325.651C672.386 325.651 674.284 327.548 674.284 329.888Z" fill="#1E0B02"/>
<path d="M624.61 314.75C624.61 317.531 622.356 319.786 619.574 319.786C616.792 319.786 614.538 317.532 614.538 314.75C614.538 311.97 616.792 309.714 619.574 309.714C622.355 309.714 624.61 311.97 624.61 314.75Z" fill="#1E0B02"/>
<path d="M629.645 308.066C629.645 310.847 627.391 313.102 624.609 313.102C621.827 313.102 619.573 310.848 619.573 308.066C619.573 305.286 621.827 303.03 624.609 303.03C627.391 303.03 629.645 305.286 629.645 308.066Z" fill="#1E0B02"/>
<path d="M636.968 304.173C636.968 306.954 634.714 309.209 631.932 309.209C629.15 309.209 626.896 306.955 626.896 304.173C626.896 301.393 629.15 299.137 631.932 299.137C634.714 299.137 636.968 301.393 636.968 304.173Z" fill="#1E0B02"/>
<path d="M644.387 302.484C644.387 305.265 642.133 307.52 639.351 307.52C636.57 307.52 634.315 305.266 634.315 302.484C634.315 299.704 636.569 297.448 639.351 297.448C642.131 297.448 644.387 299.703 644.387 302.484Z" fill="#1E0B02"/>
<path d="M666.432 321.846C666.432 324.626 668.686 326.881 671.468 326.881C674.248 326.881 676.504 324.627 676.504 321.846C676.504 319.065 674.25 316.81 671.468 316.81C668.687 316.811 666.432 319.065 666.432 321.846Z" fill="#1E0B02"/>
<path d="M662.686 314.75C662.686 317.531 664.94 319.786 667.722 319.786C670.504 319.786 672.758 317.532 672.758 314.75C672.758 311.97 670.504 309.714 667.722 309.714C664.942 309.714 662.686 311.97 662.686 314.75Z" fill="#1E0B02"/>
<path d="M657.652 308.066C657.652 310.847 659.906 313.102 662.687 313.102C665.468 313.102 667.723 310.848 667.723 308.066C667.723 305.286 665.469 303.03 662.687 303.03C659.906 303.03 657.652 305.286 657.652 308.066Z" fill="#1E0B02"/>
<path d="M650.329 304.173C650.329 306.954 652.583 309.209 655.365 309.209C658.145 309.209 660.401 306.955 660.401 304.173C660.401 301.393 658.147 299.137 655.365 299.137C652.583 299.137 650.329 301.393 650.329 304.173Z" fill="#1E0B02"/>
<path d="M642.91 302.484C642.91 305.265 645.164 307.52 647.946 307.52C650.726 307.52 652.982 305.266 652.982 302.484C652.982 299.704 650.728 297.448 647.946 297.448C645.165 297.448 642.91 299.703 642.91 302.484Z" fill="#1E0B02"/>
</g>
</g>
<path d="M659.225 112.775C669.042 70.1246 642.425 27.5916 599.775 17.7748C557.125 7.95799 514.592 34.5748 504.775 77.2251C494.958 119.875 521.575 162.408 564.225 172.225C606.875 182.042 649.408 155.425 659.225 112.775Z" fill="#83A9F4"/>
<mask id="mask5_34_662" style="mask-type:luminance" maskUnits="userSpaceOnUse" x="502" y="15" width="160" height="160">
<path d="M659.225 112.775C669.042 70.1246 642.425 27.5916 599.775 17.7748C557.125 7.95799 514.592 34.5748 504.775 77.2251C494.958 119.875 521.575 162.408 564.225 172.225C606.875 182.042 649.408 155.425 659.225 112.775Z" fill="white"/>
</mask>
<g mask="url(#mask5_34_662)">
<path d="M613.683 48.9309C610.141 42.7919 605.475 38.9726 601.116 36.5983C595.486 33.5316 588.931 32.622 582.608 33.6844H582.607C576.284 32.622 569.729 33.533 564.099 36.5983C559.74 38.9726 555.074 42.7905 551.532 48.9309C542.521 64.5488 542.722 113.605 542.722 113.605L580.618 115.961L580.612 116.207L582.605 116.084L584.601 116.209L584.595 115.961L622.492 113.606C622.492 113.606 622.694 64.5488 613.683 48.9309Z" fill="#A74B22"/>
<path d="M637.035 145.747C634.468 138.908 626.622 129.923 611.426 127.541L583.103 121.981L554.778 127.541C539.581 129.923 531.736 138.908 529.17 145.747L523.234 172.546H549.225H551.124L583.103 202L615.079 172.546H616.978H642.969L637.035 145.747Z" fill="#28466D"/>
<path d="M553.895 127.832L584.611 121.605L613.272 127.747L612.636 128.204C595.124 140.807 571.552 140.233 553.895 127.832Z" fill="#E0A78F"/>
<path d="M567.782 82.3939C567.959 86.9687 564.393 90.8217 559.818 90.9983C555.243 91.1749 551.39 87.6092 551.214 83.0344C551.037 78.4597 554.603 74.6067 559.178 74.4301C563.754 74.2521 567.607 77.8177 567.782 82.3939Z" fill="#E0A78F"/>
<path d="M554.781 81.5967C554.781 81.5967 558.06 79.9568 561.262 85.6515" stroke="#B9635E" stroke-width="0.6612" stroke-miterlimit="10" stroke-linecap="round" stroke-linejoin="round"/>
<path d="M598.052 82.3155C598.1 86.8945 601.849 90.5667 606.428 90.5205C611.007 90.4728 614.679 86.7236 614.633 82.1446C614.585 77.5656 610.836 73.8934 606.257 73.9396C601.678 73.9873 598.004 77.7366 598.052 82.3155Z" fill="#E0A78F"/>
<path d="M611 80.8845C611 80.8845 607.645 79.4072 604.725 85.2518" stroke="#B9635E" stroke-width="0.6612" stroke-miterlimit="10" stroke-linecap="round" stroke-linejoin="round"/>
<path d="M582.735 88.9112C598.482 88.749 611.124 76.7022 610.973 62.0039C610.822 47.3056 597.933 35.5219 582.186 35.6841C566.439 35.8463 553.797 47.8931 553.948 62.5913C554.099 77.2896 566.988 89.0734 582.735 88.9112Z" fill="#A74B22"/>
<path d="M591.088 98.9354C591.088 98.9354 587.536 102.266 584.274 103.108C581.013 103.95 577.805 101.507 577.764 101.476C577.723 101.447 573.911 98.6494 573.911 98.6494L572.659 125.95L573.088 126.401C578.703 132.309 586.699 132.309 592.24 126.401L593.05 125.538L591.088 98.9354Z" fill="#E0A78F"/>
<path d="M571.292 95.0725C571.292 95.0725 576.056 110.968 584.263 110.727C591.011 110.528 592.729 95.643 592.729 95.643L571.292 95.0725Z" fill="#1E0B02"/>
<path d="M605.139 66.7408C605.276 75.7082 604.058 83.4688 602.806 88.9813C601.581 94.3788 597.958 98.1926 592.802 101.298L591.863 101.863C586.408 105.149 579.297 105.332 573.662 102.334C567.978 99.3096 563.968 95.2702 562.665 89.5181C560.295 79.0566 559.874 67.436 559.874 67.436C559.874 67.436 557.734 43.1969 582.151 43.2614C606.57 43.3258 605.139 66.7408 605.139 66.7408Z" fill="#E0A78F"/>
<path d="M580.67 79.3932L580.706 82.8986L583.101 82.8733" stroke="#B9635E" stroke-width="0.6612" stroke-miterlimit="10" stroke-linecap="round" stroke-linejoin="round"/>
<path d="M563.958 66.9653L576.855 65.6688C576.855 65.6688 575.665 62.3359 570.451 62.9329C565.116 63.5412 563.958 66.9653 563.958 66.9653Z" fill="black"/>
<path d="M599.441 66.5979L586.521 65.5677C586.521 65.5677 587.643 62.2109 592.868 62.7001C598.213 63.2004 599.441 66.5979 599.441 66.5979Z" fill="black"/>
<path d="M574.064 74.7131C574.075 75.8036 573.199 76.6978 572.109 76.709C571.018 76.7202 570.124 75.8442 570.113 74.7538C570.102 73.6619 570.978 72.7691 572.068 72.7579C573.16 72.7467 574.053 73.6213 574.064 74.7131Z" fill="#1E0B02"/>
<path d="M593.449 74.5127C593.46 75.6045 592.585 76.4974 591.494 76.5086C590.404 76.5198 589.509 75.6438 589.498 74.5533C589.487 73.4615 590.363 72.5687 591.453 72.5575C592.544 72.5463 593.438 73.4223 593.449 74.5127Z" fill="#1E0B02"/>
<path d="M574.714 87.9345C574.714 87.9345 580.231 90.8666 589.047 87.7859" stroke="black" stroke-width="0.6612" stroke-miterlimit="10" stroke-linecap="round" stroke-linejoin="round"/>
<path d="M558.02 62.6514C558.02 62.6514 564.575 60.0458 570.113 59.8454L571.146 50.8346L573.449 60.0458H583.103L584.762 53.5382L586.523 60.0458L598.052 60.6457L599.443 54.9398L600.379 61.0466L607.863 61.5469C607.863 61.5469 603.583 41.9246 585.863 40.1222C568.142 38.3212 556.709 51.7414 558.02 62.6514Z" fill="#A74B22"/>
</g>
<rect x="65.3413" y="101" width="162" height="162" rx="5" fill="#111123"/>
<mask id="mask6_34_662" style="mask-type:alpha" maskUnits="userSpaceOnUse" x="44" y="105" width="158" height="158">
<rect x="44" y="105.85" width="157.15" height="157.15" rx="5" fill="#111123"/>
</mask>
<g mask="url(#mask6_34_662)">
<mask id="mask7_34_662" style="mask-type:luminance" maskUnits="userSpaceOnUse" x="30" y="109" width="186" height="186">
<path d="M212.974 222.396C224.242 172.529 192.951 122.97 143.084 111.702C93.2175 100.434 43.658 131.725 32.3902 181.591C21.1224 231.458 52.413 281.018 102.28 292.286C152.147 303.553 201.706 272.263 212.974 222.396Z" fill="white"/>
</mask>
<g mask="url(#mask7_34_662)">
<path d="M95.0433 155.155C95.0433 155.155 90.8635 179.007 62.1644 196.326C31.5646 214.791 49.0027 273.464 102.584 274.756C160.79 276.159 190.371 203.441 156.729 144.052L95.0433 155.155Z" fill="#D46919"/>
<path d="M191.702 257.256C188.704 249.266 179.539 238.771 161.788 235.988L128.703 229.493L95.618 235.988C77.8655 238.771 68.7019 249.266 65.7041 257.256L58.7704 288.56H89.1313L91.3464 291.089L128.184 298.339L166.058 288.558H168.277H198.637L191.702 257.256Z" fill="white"/>
<path d="M94.5864 236.328L130.466 229.054L163.946 236.229L163.203 236.762C142.746 251.484 115.211 250.816 94.5864 236.328Z" fill="#E0A78F"/>
<path d="M110.808 183.251C111.014 188.595 106.849 193.096 101.505 193.302C96.1615 193.509 91.6608 189.344 91.4545 184C91.2482 178.656 95.4133 174.155 100.757 173.949C106.101 173.742 110.602 177.907 110.808 183.251Z" fill="#E0A78F"/>
<path d="M95.6196 182.321C95.6196 182.321 99.4507 180.406 103.188 187.058" stroke="#B9635E" stroke-width="0.6612" stroke-miterlimit="10" stroke-linecap="round" stroke-linejoin="round"/>
<path d="M146.166 183.159C146.221 188.508 150.601 192.798 155.95 192.744C161.299 192.688 165.588 188.309 165.534 182.96C165.479 177.611 161.099 173.321 155.75 173.375C150.401 173.431 146.11 177.812 146.166 183.159Z" fill="#E0A78F"/>
<path d="M161.291 181.488C161.291 181.488 157.371 179.762 153.961 186.589" stroke="#B9635E" stroke-width="0.6612" stroke-miterlimit="10" stroke-linecap="round" stroke-linejoin="round"/>
<path d="M128.283 190.88C146.678 190.691 161.446 176.619 161.269 159.449C161.092 142.28 146.037 128.515 127.643 128.705C109.248 128.894 94.4799 142.966 94.6567 160.136C94.8336 177.305 109.889 191.07 128.283 190.88Z" fill="#D46919"/>
<path d="M138.03 202.575C138.03 202.575 133.882 206.465 130.072 207.449C126.262 208.433 122.514 205.578 122.465 205.544C122.418 205.509 117.964 202.241 117.964 202.241L116.504 234.131L117.005 234.658C123.564 241.559 132.904 241.559 139.376 234.658L140.322 233.648L138.03 202.575Z" fill="#E0A78F"/>
<path d="M114.906 198.062C114.906 198.062 120.471 216.629 130.059 216.348C137.939 216.117 139.949 198.73 139.949 198.73L114.906 198.062Z" fill="#1E0B02"/>
<path d="M154.444 164.967C154.604 175.442 153.181 184.505 151.719 190.946C150.288 197.251 146.056 201.708 140.033 205.334L138.936 205.994C132.564 209.832 124.258 210.046 117.675 206.544C111.036 203.011 106.352 198.293 104.829 191.573C102.061 179.353 101.569 165.779 101.569 165.779C101.569 165.779 99.0694 137.465 127.592 137.54C156.115 137.617 154.444 164.967 154.444 164.967Z" fill="#E0A78F"/>
<path d="M125.862 179.746L125.903 183.841L128.701 183.813" stroke="#B9635E" stroke-width="0.6612" stroke-miterlimit="10" stroke-linecap="round" stroke-linejoin="round"/>
<path d="M106.34 165.228L121.404 163.714C121.404 163.714 120.014 159.821 113.924 160.518C107.692 161.23 106.34 165.228 106.34 165.228Z" fill="#D46919"/>
<path d="M147.788 164.801L132.696 163.598C132.696 163.598 134.006 159.677 140.108 160.248C146.354 160.831 147.788 164.801 147.788 164.801Z" fill="#D46919"/>
<path d="M118.146 174.279C118.159 175.554 117.136 176.597 115.862 176.61C114.588 176.624 113.544 175.6 113.531 174.327C113.518 173.051 114.541 172.008 115.815 171.995C117.089 171.982 118.131 173.005 118.146 174.279Z" fill="#1E0B02"/>
<path d="M140.789 174.047C140.802 175.322 139.779 176.365 138.505 176.378C137.23 176.391 136.187 175.368 136.174 174.094C136.161 172.819 137.184 171.776 138.458 171.763C139.731 171.748 140.776 172.771 140.789 174.047Z" fill="#1E0B02"/>
<path d="M118.904 189.725C118.904 189.725 125.35 193.15 135.646 189.553" stroke="black" stroke-width="0.6612" stroke-miterlimit="10" stroke-linecap="round" stroke-linejoin="round"/>
<path d="M154.377 158.527C154.377 158.527 112.421 160.533 113.937 135.901C113.937 135.901 150.408 125.156 154.377 158.527Z" fill="#D46919"/>
<path d="M100.877 159.098C100.877 159.098 115.558 152.776 115.402 137.662C115.402 137.662 100.307 139.563 100.877 159.098Z" fill="#D46919"/>
<mask id="mask8_34_662" style="mask-type:luminance" maskUnits="userSpaceOnUse" x="58" y="236" width="141" height="54">
<path d="M191.702 257.493C188.819 249.728 180.207 239.641 163.761 236.378L163.203 236.784C142.746 251.661 115.211 250.985 94.5849 236.345L95.6164 236.001C77.8639 238.814 68.7003 249.42 65.7025 257.493L58.7689 289.128H89.1297H91.3481H128.702H166.055H168.273H198.634L191.702 257.493Z" fill="white"/>
</mask>
<g mask="url(#mask8_34_662)">
<path d="M54.7512 239.834H201.634" stroke="#EF758D" stroke-miterlimit="10"/>
<path d="M54.7512 247.503H201.634" stroke="#EF758D" stroke-miterlimit="10"/>
<path d="M54.7512 255.173H201.634" stroke="#EF758D" stroke-miterlimit="10"/>
<path d="M54.7512 262.842H201.634" stroke="#EF758D" stroke-miterlimit="10"/>
</g>
</g>
</g>
</svg>
