
<svg width="200" height="200" viewBox="0 0 200 200" fill="none" xmlns="http://www.w3.org/2000/svg">
<path fill-rule="evenodd" clip-rule="evenodd" d="M15.4415 45.1306C13.8795 41.8142 16.299 38 19.9649 38H67.2163C69.1741 38 70.9517 39.1426 71.7648 40.9235L90.5769 82.1311C91.179 83.4499 91.179 84.9652 90.5769 86.284L67.6143 136.583C65.8464 140.456 60.3564 140.488 58.5425 136.637L15.4415 45.1306ZM115.7 155.336C114.267 158.378 116.486 161.876 119.848 161.876V161.876C123.186 161.876 125.406 158.423 124.019 155.386V155.386C122.398 151.834 117.363 151.804 115.7 155.336V155.336Z" fill="#5a8cf0bf"/>
<path d="M124.75 40.9236C125.563 39.1426 127.34 38.0001 129.298 38.0001H176.55C180.215 38.0001 182.635 41.8143 181.073 45.1306L127.436 159.006C126.611 160.758 124.849 161.876 122.912 161.876H77.3114C73.6714 161.876 71.2513 158.11 72.763 154.799L124.75 40.9236Z" fill="#1c1c47"/>
</svg>
