<svg width="565" height="395" viewBox="0 0 565 395" fill="none" xmlns="http://www.w3.org/2000/svg">
<rect x="12" y="94" width="91" height="13" rx="3" fill="#3C527E"/>
<rect x="12" y="115" width="91" height="13" rx="3" fill="#3C527E"/>
<rect x="12" y="136" width="91" height="13" rx="3" fill="#3C527E"/>
<rect x="12" y="182" width="91" height="13" rx="3" fill="#3C527E"/>
<rect x="12" y="203" width="91" height="13" rx="3" fill="#3C527E"/>
<rect x="12" y="224" width="91" height="13" rx="3" fill="#3C527E"/>
<rect x="12" y="245" width="91" height="13" rx="3" fill="#3C527E"/>
<rect x="48.5" y="26.5" width="516" height="368" rx="4.5" fill="white" stroke="#DADADA"/>
<path d="M0 13H140V395H5C2.23857 395 0 392.761 0 390V13Z" fill="#2F4777"/>
<path d="M0 5C0 2.23858 2.23858 0 5 0H560C562.761 0 565 2.23858 565 5V40H0V5Z" fill="#111123"/>
<circle cx="18.5" cy="19.5" r="6.5" fill="#DE5656"/>
<circle cx="41.5" cy="19.5" r="6.5" fill="#DE9756"/>
<circle cx="64.5" cy="19.5" r="6.5" fill="#59DE56"/>
<line x1="140" y1="81.5" x2="565" y2="81.5" stroke="#DADADA"/>
<line y1="81.5" x2="140" y2="81.5" stroke="#465E8E"/>
<rect x="484.5" y="45.5" width="28" height="28" rx="4" fill="#D9D9D9" stroke="white" stroke-width="3"/>
<rect x="486" y="47" width="25" height="25" rx="2.5" fill="#F1C93D"/>
<mask id="mask0_32_468" style="mask-type:alpha" maskUnits="userSpaceOnUse" x="486" y="47" width="25" height="25">
<rect x="486" y="47" width="25" height="25" rx="2.5" fill="#F1C93D"/>
</mask>
<g mask="url(#mask0_32_468)">
<path d="M511.543 64.7172C513.32 57.3813 508.814 49.994 501.478 48.2172C494.142 46.4404 486.755 50.947 484.978 58.2829C483.201 65.6188 487.708 73.0061 495.043 74.7829C502.379 76.5597 509.767 72.0531 511.543 64.7172Z" fill="#F1C93D"/>
<mask id="mask1_32_468" style="mask-type:luminance" maskUnits="userSpaceOnUse" x="484" y="47" width="28" height="29">
<path d="M511.543 64.7172C513.32 57.3813 508.814 49.994 501.478 48.2172C494.142 46.4404 486.755 50.947 484.978 58.2829C483.201 65.6188 487.708 73.0061 495.043 74.7829C502.379 76.5597 509.767 72.0531 511.543 64.7172Z" fill="white"/>
</mask>
<g mask="url(#mask1_32_468)">
<path d="M507.481 73.4112C507.039 72.2316 505.686 70.6822 503.065 70.2713L498.18 69.3124L493.296 70.2713C490.675 70.6822 489.322 72.2316 488.879 73.4112L487.855 78.0329H492.338H492.665H498.18H503.695H504.023H508.505L507.481 73.4112Z" fill="#D3445B"/>
<path d="M493.143 70.3216L498.441 69.2477L503.383 70.3069L503.274 70.3857C500.253 72.5593 496.188 72.4604 493.143 70.3216Z" fill="#966050"/>
<path d="M495.538 62.4853C495.569 63.2742 494.954 63.9387 494.165 63.9692C493.376 63.9997 492.711 63.3847 492.681 62.5957C492.65 61.8068 493.265 61.1423 494.054 61.1118C494.844 61.0811 495.508 61.6961 495.538 62.4853Z" fill="#7C483D"/>
<path d="M493.296 62.3477C493.296 62.3477 493.861 62.0649 494.413 63.047" stroke="black" stroke-width="0.6612" stroke-miterlimit="10" stroke-linecap="round" stroke-linejoin="round"/>
<path d="M500.758 62.4717C500.767 63.2614 501.413 63.8947 502.203 63.8867C502.993 63.8785 503.626 63.2319 503.618 62.4422C503.61 61.6525 502.963 61.0192 502.173 61.0272C501.384 61.0354 500.75 61.6822 500.758 62.4717Z" fill="#7C483D"/>
<path d="M502.991 62.2249C502.991 62.2249 502.413 61.9701 501.909 62.9781" stroke="black" stroke-width="0.6612" stroke-miterlimit="10" stroke-linecap="round" stroke-linejoin="round"/>
<path d="M498.113 63.6093C500.829 63.5813 503.01 61.5037 502.983 58.9689C502.957 56.434 500.735 54.4017 498.019 54.4297C495.303 54.4577 493.123 56.5353 493.149 59.0702C493.175 61.6051 495.398 63.6373 498.113 63.6093Z" fill="black"/>
<path d="M499.558 65.3384C499.558 65.3384 498.945 65.9127 498.383 66.058C497.82 66.2032 497.267 65.7819 497.259 65.7766C497.252 65.7715 496.595 65.2891 496.595 65.2891L496.379 69.9973L496.453 70.0751C497.421 71.094 498.8 71.0942 499.756 70.0751L499.896 69.926L499.558 65.3384Z" fill="#966050"/>
<path d="M496.143 64.6719C496.143 64.6719 496.965 67.4132 498.38 67.3716C499.544 67.3376 499.84 64.7705 499.84 64.7705L496.143 64.6719Z" fill="#1E0B02"/>
<path d="M501.981 59.7856C502.004 61.3322 501.794 62.6706 501.578 63.6213C501.367 64.5521 500.742 65.2101 499.853 65.7455L499.691 65.8429C498.75 66.4095 497.524 66.4412 496.552 65.9241C495.572 65.4025 494.88 64.7059 494.655 63.7139C494.246 61.9096 494.174 59.9055 494.174 59.9055C494.174 59.9055 493.805 55.7252 498.016 55.7364C502.227 55.7477 501.981 59.7856 501.981 59.7856Z" fill="#966050"/>
<path d="M497.761 61.9678L497.767 62.5723L498.18 62.568" stroke="#684138" stroke-miterlimit="10" stroke-linecap="round" stroke-linejoin="round"/>
<path d="M494.879 59.8244L497.103 59.6008C497.103 59.6008 496.897 59.026 495.998 59.1289C495.078 59.2338 494.879 59.8244 494.879 59.8244Z" fill="black"/>
<path d="M500.998 59.7611L498.77 59.5834C498.77 59.5834 498.963 59.0045 499.864 59.0888C500.786 59.1751 500.998 59.7611 500.998 59.7611Z" fill="black"/>
<path d="M496.622 61.1607C496.624 61.349 496.472 61.503 496.284 61.5049C496.096 61.5068 495.942 61.3558 495.94 61.1677C495.938 60.9794 496.089 60.8254 496.277 60.8235C496.465 60.8216 496.62 60.9727 496.622 61.1607Z" fill="#1E0B02"/>
<path d="M499.965 61.126C499.967 61.3143 499.815 61.4683 499.627 61.4702C499.439 61.4722 499.285 61.3211 499.283 61.133C499.281 60.9447 499.432 60.7908 499.62 60.7888C499.808 60.7869 499.963 60.938 499.965 61.126Z" fill="#1E0B02"/>
<path d="M496.734 63.441C496.734 63.441 497.685 63.9467 499.205 63.4156" stroke="black" stroke-width="0.6612" stroke-miterlimit="10" stroke-linecap="round" stroke-linejoin="round"/>
<path d="M501.971 58.8348C501.971 58.8348 495.777 59.1309 496 55.4942C496 55.4942 501.385 53.908 501.971 58.8348Z" fill="black"/>
<path d="M494.072 58.9194C494.072 58.9194 496.24 57.9858 496.217 55.7548C496.217 55.7548 493.988 56.0349 494.072 58.9194Z" fill="black"/>
<path d="M497.918 54.9948C499.518 54.9948 500.816 53.6976 500.816 52.0973C500.816 50.4971 499.518 49.1998 497.918 49.1998C496.318 49.1998 495.021 50.4971 495.021 52.0973C495.021 53.6976 496.318 54.9948 497.918 54.9948Z" fill="black"/>
<path d="M497.8 53.9358C497.8 54.835 497.03 55.5641 496.08 55.5641C495.131 55.5641 494.361 54.835 494.361 53.9358C494.361 53.0366 495.131 52.3076 496.08 52.3076C497.03 52.3076 497.8 53.0366 497.8 53.9358Z" fill="black"/>
<path d="M500.117 55.8687C500.964 55.8687 501.651 55.1817 501.651 54.3343C501.651 53.4868 500.964 52.7998 500.117 52.7998C499.269 52.7998 498.582 53.4868 498.582 54.3343C498.582 55.1817 499.269 55.8687 500.117 55.8687Z" fill="black"/>
</g>
</g>
<rect x="462.5" y="45.5" width="28" height="28" rx="4" fill="#D9D9D9" stroke="white" stroke-width="3"/>
<rect x="464" y="47" width="25" height="25" rx="2.5" fill="#D3445B"/>
<mask id="mask2_32_468" style="mask-type:alpha" maskUnits="userSpaceOnUse" x="464" y="47" width="25" height="25">
<rect x="464" y="47" width="25" height="25" rx="2.5" fill="#D3445B"/>
</mask>
<g mask="url(#mask2_32_468)">
<path d="M487.209 72.75C492.87 67.0891 492.87 57.9109 487.209 52.25C481.548 46.5891 472.37 46.5891 466.709 52.25C461.048 57.9109 461.048 67.0891 466.709 72.75C472.37 78.4109 481.548 78.4109 487.209 72.75Z" fill="#D3445B"/>
<mask id="mask3_32_468" style="mask-type:luminance" maskUnits="userSpaceOnUse" x="462" y="48" width="30" height="29">
<path d="M487.209 72.75C492.87 67.0891 492.87 57.9109 487.209 52.25C481.548 46.5891 472.37 46.5891 466.709 52.25C461.048 57.9109 461.048 67.0891 466.709 72.75C472.37 78.4109 481.548 78.4109 487.209 72.75Z" fill="white"/>
</mask>
<g mask="url(#mask3_32_468)">
<path d="M491.174 77.7653H463.205C464.494 71.9762 467.956 70.8199 467.956 70.8199L474.627 67.6997L477.155 67.6766H477.224L479.754 67.6997L486.425 70.8199C486.425 70.8199 489.884 71.9762 491.174 77.7653Z" fill="white"/>
<path d="M478.717 51.0698C478.717 51.0698 481.045 50.0324 481.87 51.9938C482.665 53.882 479.51 55.6813 479.51 55.6813L478.717 51.0698Z" fill="#1E0B02"/>
<path d="M474.364 58.8982C474.388 59.7702 473.702 60.4973 472.83 60.5219C471.958 60.5465 471.231 59.8597 471.206 58.9877C471.181 58.1158 471.868 57.3887 472.74 57.364C473.612 57.3394 474.339 58.0263 474.364 58.8982Z" fill="#C67D69"/>
<path d="M471.888 58.721C471.888 58.721 472.516 58.4151 473.115 59.5063" stroke="#A8523F" stroke-width="0.7482" stroke-miterlimit="10" stroke-linecap="round" stroke-linejoin="round"/>
<path d="M481.71 60.5224C482.583 60.5224 483.29 59.8152 483.29 58.9429C483.29 58.0705 482.583 57.3633 481.71 57.3633C480.838 57.3633 480.131 58.0705 480.131 58.9429C480.131 59.8152 480.838 60.5224 481.71 60.5224Z" fill="#C67D69"/>
<path d="M482.601 58.6957C482.601 58.6957 481.964 58.4078 481.397 59.5153" stroke="#A8523F" stroke-width="0.7482" stroke-miterlimit="10" stroke-linecap="round" stroke-linejoin="round"/>
<path d="M479.274 62.5826C479.274 62.5826 478.383 63.211 477.572 63.3661C476.76 63.5212 475.971 63.0502 475.961 63.0443C475.951 63.0387 475.014 62.4993 475.014 62.4993L474.626 67.6984L474.731 67.7851C476.107 68.9201 478.09 68.9337 479.482 67.8174L479.685 67.6541L479.274 62.5826Z" fill="#C67D69"/>
<path d="M474.626 61.9528C474.626 61.9528 475.511 64.8499 477.547 64.8178C479.221 64.7914 479.491 61.9528 479.491 61.9528H474.626Z" fill="#1E0B02"/>
<path d="M481.513 56.1931C481.522 57.9786 481.275 59.5207 481.025 60.6155C480.782 61.6874 480.084 62.4391 479.096 63.0465L478.916 63.157C477.87 63.7995 476.515 63.8213 475.447 63.2126C474.37 62.5988 473.614 61.7861 473.376 60.6383C472.945 58.5508 472.887 56.2367 472.887 56.2367C472.887 56.2367 472.281 51.407 476.933 51.4711C481.585 51.5352 481.513 56.1931 481.513 56.1931Z" fill="#C67D69"/>
<path d="M475.194 57.986C475.401 57.986 475.57 57.8175 475.57 57.6096C475.57 57.4018 475.401 57.2333 475.194 57.2333C474.986 57.2333 474.817 57.4018 474.817 57.6096C474.817 57.8175 474.986 57.986 475.194 57.986Z" fill="#1E0B02"/>
<path d="M478.887 57.986C479.095 57.986 479.264 57.8175 479.264 57.6096C479.264 57.4018 479.095 57.2333 478.887 57.2333C478.679 57.2333 478.511 57.4018 478.511 57.6096C478.511 57.8175 478.679 57.986 478.887 57.986Z" fill="#1E0B02"/>
<path d="M476.699 58.1593V59.1976H477.37" stroke="#A8523F" stroke-width="0.7482" stroke-miterlimit="10" stroke-linecap="round" stroke-linejoin="round"/>
<path d="M473.791 56.0189L476.251 55.7971C476.251 55.7971 476.031 55.1597 475.036 55.263C474.018 55.3689 473.791 56.0189 473.791 56.0189Z" fill="black"/>
<path d="M480.131 56.0189L477.671 55.7971C477.671 55.7971 477.892 55.1597 478.886 55.263C479.903 55.3689 480.131 56.0189 480.131 56.0189Z" fill="black"/>
<path d="M475.857 60.0575H478.283C478.283 60.0575 478.169 60.8007 477.034 60.8007C475.899 60.8007 475.857 60.0575 475.857 60.0575Z" fill="white"/>
<path d="M473.046 58.5223C473.046 58.5223 473.735 53.2988 473.398 52.4381C473.398 52.4381 471.055 54.3761 473.046 58.5223Z" fill="#1E0B02"/>
<path d="M481.337 58.4803C481.337 58.4803 480.562 53.4921 480.777 52.0569C480.777 52.0569 483.04 54.0608 481.337 58.4803Z" fill="#1E0B02"/>
<path d="M480.615 51.7013L478.47 51.377L478.281 51.006L477.149 51.1772L476.017 51.006L475.829 51.377L473.684 51.7013L473.398 52.8489L473.468 54.1718C473.468 54.1718 473.808 52.6712 474.99 52.9701C475.268 53.0406 475.602 53.1573 475.992 53.236C476.356 53.3155 476.704 53.3514 477.031 53.357C477.07 53.358 477.11 53.357 477.149 53.3573C477.189 53.357 477.229 53.358 477.268 53.357C477.595 53.3514 477.942 53.3155 478.307 53.236C478.697 53.1573 479.038 53.0645 479.309 52.9701C480.405 52.5889 480.808 54.1033 480.808 54.1033L480.901 52.8489L480.615 51.7013Z" fill="#1E0B02"/>
<path d="M480.572 53.0067C480.572 53.0067 479.177 54.2514 477.39 53.2951C477.39 53.2951 472.844 56.0961 471.56 53.047C470.49 50.5049 474.931 47.0553 479.514 50.9426L480.572 53.0067Z" fill="#1E0B02"/>
<path d="M474.626 67.6987L473.135 68.3835C473.135 68.3835 473.119 70.8822 477.169 70.7524C481.322 70.6196 481.297 68.4211 481.297 68.4211L479.685 67.6541L474.626 67.6987Z" fill="#C67D69"/>
</g>
</g>
<rect x="440.5" y="45.5" width="28" height="28" rx="4" fill="#D9D9D9" stroke="white" stroke-width="3"/>
<rect x="442" y="47" width="25" height="25" rx="2.5" fill="#59DE56"/>
<mask id="mask4_32_468" style="mask-type:alpha" maskUnits="userSpaceOnUse" x="442" y="47" width="25" height="25">
<rect x="442" y="47" width="25" height="25" rx="2.5" fill="#59DE56"/>
</mask>
<g mask="url(#mask4_32_468)">
<path d="M468.98 65.5667C470.95 57.5954 466.085 49.5365 458.114 47.5667C450.143 45.5969 442.084 50.462 440.114 58.4333C438.144 66.4046 443.009 74.4634 450.98 76.4333C458.952 78.4031 467.011 73.538 468.98 65.5667Z" fill="#59DE56"/>
<mask id="mask5_32_468" style="mask-type:luminance" maskUnits="userSpaceOnUse" x="439" y="47" width="31" height="30">
<path d="M468.98 65.5667C470.95 57.5954 466.085 49.5365 458.114 47.5667C450.143 45.5969 442.084 50.462 440.114 58.4333C438.144 66.4046 443.009 74.4634 450.98 76.4333C458.952 78.4031 467.011 73.538 468.98 65.5667Z" fill="white"/>
</mask>
<g mask="url(#mask5_32_468)">
<path d="M459.273 60.8251C460.168 60.8251 460.894 60.0998 460.894 59.205C460.894 58.3103 460.168 57.585 459.273 57.585C458.379 57.585 457.653 58.3103 457.653 59.205C457.653 60.0998 458.379 60.8251 459.273 60.8251Z" fill="#E8B499"/>
<path d="M460.186 58.9514C460.186 58.9514 459.534 58.6558 458.952 59.792" stroke="#C47268" stroke-width="0.6887" stroke-miterlimit="10" stroke-linecap="round" stroke-linejoin="round"/>
<path d="M451.739 59.1593C451.764 60.0536 451.059 60.7991 450.165 60.8246C449.271 60.8498 448.525 60.1454 448.5 59.251C448.474 58.3567 449.179 57.611 450.073 57.5858C450.968 57.5602 451.713 58.2647 451.739 59.1593Z" fill="#E8B499"/>
<path d="M449.199 58.9774C449.199 58.9774 449.843 58.6637 450.457 59.7828" stroke="#C47268" stroke-width="0.6887" stroke-miterlimit="10" stroke-linecap="round" stroke-linejoin="round"/>
<path d="M461.831 76.7817H447.232L447.258 69.1639C447.555 68.9798 447.907 68.8352 448.26 68.7222C449.104 68.4539 449.929 68.3777 449.929 68.3777L454.526 68.8405L459.122 68.3777C459.122 68.3777 459.746 68.4355 460.461 68.6275C460.463 68.6275 460.466 68.6301 460.469 68.6301C460.916 68.7484 461.399 68.922 461.791 69.1639L461.831 76.7817Z" fill="#EF758D"/>
<path d="M448.279 68.7183L453.695 67.2949H455.563L460.461 68.6278C457.957 70.976 451.739 72.9008 448.559 68.8274L448.279 68.7183Z" fill="#E8B499"/>
<path d="M456.261 62.4387C456.261 62.4387 455.56 63.0822 454.921 63.2402C454.282 63.3982 453.659 62.9141 453.651 62.9084C453.643 62.9026 452.904 62.3483 452.904 62.3483L452.604 67.6802L452.687 67.7691C453.773 68.935 455.336 68.9511 456.431 67.8077L456.591 67.6405L456.261 62.4387Z" fill="#E8B499"/>
<path d="M448.278 68.7195L447.647 76.7817H442.53C443.064 75.53 443.69 74.0233 444.265 72.5455C445.562 69.2059 448.023 68.7589 448.26 68.7221C448.273 68.7195 448.278 68.7195 448.278 68.7195Z" fill="#EF758D"/>
<path d="M466.556 76.7818H461.3L460.461 68.6276C460.463 68.6276 460.466 68.6302 460.469 68.6302C460.64 68.6512 463.374 69.0798 464.786 72.5456C465.417 74.097 466.049 75.5932 466.556 76.7818Z" fill="#EF758D"/>
<path d="M454.617 72.5704C459.248 72.3745 462.246 69.497 462.246 69.497C461.938 68.2574 460.457 67.295 460.457 67.295C460.457 67.295 460.653 66.4917 460.188 65.8532C459.722 65.2148 460.42 64.2755 461.08 61.6438C461.739 59.0122 461.196 54.8091 459.529 51.9166C457.862 49.027 454.513 49.249 454.507 49.2495C454.5 49.249 451.151 49.027 449.485 51.9166C447.817 54.8091 447.274 59.0119 447.933 61.6438C448.593 64.2755 449.291 65.2148 448.825 65.8532C448.36 66.4919 448.556 67.295 448.556 67.295C448.556 67.295 447.074 68.2574 446.767 69.497C446.767 69.497 449.765 72.3742 454.396 72.5704V72.5798C454.433 72.5791 454.47 72.5764 454.507 72.5751C454.544 72.5764 454.581 72.5791 454.618 72.5798L454.617 72.5704Z" fill="#28466D"/>
<path d="M459.59 57.3407C460.261 54.612 458.594 51.8556 455.865 51.184C453.136 50.5124 450.38 52.1799 449.708 54.9085C449.037 57.6371 450.704 60.3936 453.433 61.0652C456.161 61.7368 458.918 60.0693 459.59 57.3407Z" fill="#28466D"/>
<path d="M452.399 61.6437C452.399 61.6437 453.298 64.7594 454.903 64.7289C456.222 64.7037 456.589 61.7986 456.589 61.7986L452.399 61.6437Z" fill="#1E0B02"/>
<path d="M459.07 56.1759C459.079 57.9285 458.825 59.4423 458.569 60.5173C458.319 61.5696 457.603 62.3075 456.589 62.9039L456.405 63.0125C455.332 63.6433 453.942 63.6651 452.847 63.0677C451.742 62.4653 450.967 61.6677 450.724 60.5412C450.282 58.4923 450.224 56.2206 450.224 56.2206C450.224 56.2206 449.854 51.4798 454.625 51.5416C459.396 51.6034 459.07 56.1759 459.07 56.1759Z" fill="#E8B499"/>
<path d="M454.263 58.7722V59.4664H454.731" stroke="#C47268" stroke-width="0.6887" stroke-miterlimit="10" stroke-linecap="round" stroke-linejoin="round"/>
<path d="M451.022 56.1363L453.545 55.9089C453.545 55.9089 453.319 55.2552 452.299 55.3614C451.255 55.47 451.022 56.1363 451.022 56.1363Z" fill="black"/>
<path d="M457.957 56.1363L455.434 55.9089C455.434 55.9089 455.66 55.2552 456.68 55.3614C457.724 55.47 457.957 56.1363 457.957 56.1363Z" fill="black"/>
<path d="M453.12 60.1067H455.874C455.874 60.1067 455.768 60.8251 454.447 60.8251C453.363 60.8251 453.12 60.1067 453.12 60.1067Z" fill="white"/>
<path d="M453.248 57.8373C453.248 57.8373 452.595 57.3035 452.023 57.8373" stroke="#1E0B02" stroke-width="0.9565" stroke-miterlimit="10" stroke-linecap="round" stroke-linejoin="round"/>
<path d="M456.935 57.8374C456.935 57.8374 456.424 57.29 455.74 57.8374" stroke="#1E0B02" stroke-width="0.9565" stroke-miterlimit="10" stroke-linecap="round" stroke-linejoin="round"/>
<path opacity="0.23" d="M452.025 56.0937L453.874 58.6038C453.874 58.6038 453.316 59.6698 452.428 59.5512L450.562 57.1023C450.562 57.1023 451.067 56.0258 452.025 56.0937Z" fill="white"/>
<path opacity="0.23" d="M456.573 56.0937L458.422 58.6038C458.422 58.6038 457.864 59.6698 456.976 59.5512L455.11 57.1023C455.11 57.1023 455.614 56.0258 456.573 56.0937Z" fill="white"/>
<path d="M454.021 57.8375C454.021 58.8359 453.212 59.6453 452.213 59.6453C451.215 59.6453 450.405 58.8359 450.405 57.8375C450.405 56.839 451.215 56.0297 452.213 56.0297C453.212 56.0297 454.021 56.839 454.021 57.8375Z" stroke="white" stroke-width="0.4927" stroke-miterlimit="10"/>
<path d="M458.574 57.8375C458.574 58.8359 457.764 59.6453 456.766 59.6453C455.768 59.6453 454.958 58.8359 454.958 57.8375C454.958 56.839 455.768 56.0297 456.766 56.0297C457.764 56.0297 458.574 56.839 458.574 57.8375Z" stroke="white" stroke-width="0.4927" stroke-miterlimit="10"/>
<path d="M454.021 57.8374C454.021 57.8374 454.538 57.6473 454.958 57.8374" stroke="white" stroke-width="0.4927" stroke-miterlimit="10"/>
<path d="M459.07 55.0982C458.585 50.6277 455.595 50.76 454.417 50.9919C453.239 50.76 450.249 50.6277 449.764 55.0982C449.764 55.0982 450.869 54.8876 452.069 54.2607C453.534 53.4952 455.3 53.4952 456.765 54.2607C457.965 54.8878 459.07 55.0982 459.07 55.0982Z" fill="#28466D"/>
</g>
</g>
<path d="M526.076 64V55.672H527.192V64H526.076ZM524.372 56.68V55.672H527.072V56.68H524.372ZM529.012 65.32L529.756 63.892L530.14 63.796C530.1 63.884 530.048 63.956 529.984 64.012C529.928 64.068 529.856 64.096 529.768 64.096C529.6 64.096 529.444 64.028 529.3 63.892C529.164 63.748 529.096 63.572 529.096 63.364C529.096 63.132 529.172 62.94 529.324 62.788C529.476 62.628 529.668 62.548 529.9 62.548C530.108 62.548 530.292 62.628 530.452 62.788C530.612 62.94 530.692 63.132 530.692 63.364C530.692 63.452 530.672 63.56 530.632 63.688C530.6 63.808 530.532 63.964 530.428 64.156L529.636 65.656L529.012 65.32ZM534.765 64.12C534.213 64.12 533.725 64.016 533.301 63.808C532.885 63.6 532.561 63.312 532.329 62.944C532.097 62.576 531.981 62.16 531.981 61.696C531.981 61.32 532.053 60.976 532.197 60.664C532.341 60.352 532.553 60.088 532.833 59.872C533.113 59.648 533.441 59.488 533.817 59.392L533.853 59.716C533.533 59.628 533.261 59.488 533.037 59.296C532.813 59.096 532.641 58.864 532.521 58.6C532.409 58.328 532.353 58.04 532.353 57.736C532.353 57.304 532.457 56.924 532.665 56.596C532.873 56.268 533.157 56.012 533.517 55.828C533.885 55.636 534.301 55.54 534.765 55.54C535.237 55.54 535.653 55.636 536.013 55.828C536.373 56.012 536.657 56.268 536.865 56.596C537.073 56.924 537.177 57.304 537.177 57.736C537.177 58.04 537.117 58.328 536.997 58.6C536.885 58.864 536.717 59.096 536.493 59.296C536.277 59.488 536.009 59.628 535.689 59.716L535.713 59.392C536.097 59.488 536.425 59.648 536.697 59.872C536.977 60.088 537.189 60.352 537.333 60.664C537.485 60.976 537.561 61.32 537.561 61.696C537.561 62.16 537.445 62.576 537.213 62.944C536.981 63.312 536.653 63.6 536.229 63.808C535.813 64.016 535.325 64.12 534.765 64.12ZM534.765 63.1C535.101 63.1 535.393 63.036 535.641 62.908C535.897 62.772 536.097 62.588 536.241 62.356C536.393 62.124 536.469 61.856 536.469 61.552C536.469 61.256 536.393 60.992 536.241 60.76C536.097 60.528 535.897 60.348 535.641 60.22C535.393 60.084 535.101 60.016 534.765 60.016C534.437 60.016 534.145 60.084 533.889 60.22C533.633 60.348 533.429 60.528 533.277 60.76C533.133 60.992 533.061 61.256 533.061 61.552C533.061 61.856 533.133 62.124 533.277 62.356C533.429 62.588 533.633 62.772 533.889 62.908C534.145 63.036 534.437 63.1 534.765 63.1ZM534.765 59.14C535.165 59.14 535.493 59.016 535.749 58.768C536.005 58.52 536.133 58.2 536.133 57.808C536.133 57.424 536.005 57.112 535.749 56.872C535.493 56.624 535.165 56.5 534.765 56.5C534.373 56.5 534.049 56.624 533.793 56.872C533.537 57.112 533.409 57.424 533.409 57.808C533.409 58.2 533.537 58.52 533.793 58.768C534.049 59.016 534.373 59.14 534.765 59.14ZM542.023 64.12C541.399 64.12 540.827 63.944 540.307 63.592C539.795 63.24 539.387 62.744 539.083 62.104C538.779 61.456 538.627 60.696 538.627 59.824C538.627 58.952 538.775 58.196 539.071 57.556C539.375 56.916 539.783 56.424 540.295 56.08C540.807 55.728 541.371 55.552 541.987 55.552C542.619 55.552 543.191 55.728 543.703 56.08C544.215 56.424 544.619 56.916 544.915 57.556C545.219 58.196 545.371 58.956 545.371 59.836C545.371 60.708 545.219 61.468 544.915 62.116C544.619 62.756 544.215 63.252 543.703 63.604C543.199 63.948 542.639 64.12 542.023 64.12ZM541.999 63.052C542.439 63.052 542.823 62.932 543.151 62.692C543.487 62.444 543.751 62.08 543.943 61.6C544.135 61.12 544.23 60.528 544.23 59.824C544.23 59.12 544.135 58.532 543.943 58.06C543.751 57.58 543.487 57.22 543.151 56.98C542.815 56.732 542.427 56.608 541.987 56.608C541.555 56.608 541.171 56.732 540.835 56.98C540.499 57.22 540.235 57.58 540.043 58.06C539.859 58.532 539.767 59.12 539.767 59.824C539.767 60.528 539.859 61.12 540.043 61.6C540.235 62.08 540.499 62.444 540.835 62.692C541.171 62.932 541.559 63.052 541.999 63.052ZM549.238 64.12C548.686 64.12 548.198 64.016 547.774 63.808C547.358 63.6 547.034 63.312 546.802 62.944C546.57 62.576 546.454 62.16 546.454 61.696C546.454 61.32 546.526 60.976 546.67 60.664C546.814 60.352 547.026 60.088 547.306 59.872C547.586 59.648 547.914 59.488 548.29 59.392L548.326 59.716C548.006 59.628 547.734 59.488 547.51 59.296C547.286 59.096 547.114 58.864 546.994 58.6C546.882 58.328 546.826 58.04 546.826 57.736C546.826 57.304 546.93 56.924 547.138 56.596C547.346 56.268 547.63 56.012 547.99 55.828C548.358 55.636 548.774 55.54 549.238 55.54C549.71 55.54 550.126 55.636 550.486 55.828C550.846 56.012 551.13 56.268 551.338 56.596C551.546 56.924 551.65 57.304 551.65 57.736C551.65 58.04 551.59 58.328 551.47 58.6C551.358 58.864 551.19 59.096 550.966 59.296C550.75 59.488 550.482 59.628 550.162 59.716L550.186 59.392C550.57 59.488 550.898 59.648 551.17 59.872C551.45 60.088 551.662 60.352 551.806 60.664C551.958 60.976 552.034 61.32 552.034 61.696C552.034 62.16 551.918 62.576 551.686 62.944C551.454 63.312 551.126 63.6 550.702 63.808C550.286 64.016 549.798 64.12 549.238 64.12ZM549.238 63.1C549.574 63.1 549.866 63.036 550.114 62.908C550.37 62.772 550.57 62.588 550.714 62.356C550.866 62.124 550.942 61.856 550.942 61.552C550.942 61.256 550.866 60.992 550.714 60.76C550.57 60.528 550.37 60.348 550.114 60.22C549.866 60.084 549.574 60.016 549.238 60.016C548.91 60.016 548.618 60.084 548.362 60.22C548.106 60.348 547.902 60.528 547.75 60.76C547.606 60.992 547.534 61.256 547.534 61.552C547.534 61.856 547.606 62.124 547.75 62.356C547.902 62.588 548.106 62.772 548.362 62.908C548.618 63.036 548.91 63.1 549.238 63.1ZM549.238 59.14C549.638 59.14 549.966 59.016 550.222 58.768C550.478 58.52 550.606 58.2 550.606 57.808C550.606 57.424 550.478 57.112 550.222 56.872C549.966 56.624 549.638 56.5 549.238 56.5C548.846 56.5 548.522 56.624 548.266 56.872C548.01 57.112 547.882 57.424 547.882 57.808C547.882 58.2 548.01 58.52 548.266 58.768C548.522 59.016 548.846 59.14 549.238 59.14Z" fill="#656565"/>
<path d="M163.152 67L164.976 55.752H166.704L164.896 67H163.152ZM158.624 63.704V62.136H167.28V63.704H158.624ZM159.616 67L161.44 55.752H163.168L161.36 67H159.616ZM159.136 60.376V58.808H167.808V60.376H159.136ZM176.779 67.16C176.224 67.16 175.723 67.048 175.275 66.824C174.827 66.5893 174.469 66.2747 174.203 65.88C173.936 65.4853 173.792 65.032 173.771 64.52V61.784C173.792 61.272 173.936 60.8187 174.203 60.424C174.48 60.0187 174.837 59.6987 175.275 59.464C175.723 59.2293 176.224 59.112 176.779 59.112C177.493 59.112 178.133 59.288 178.699 59.64C179.264 59.992 179.707 60.472 180.027 61.08C180.357 61.688 180.523 62.376 180.523 63.144C180.523 63.9013 180.357 64.584 180.027 65.192C179.707 65.8 179.264 66.28 178.699 66.632C178.133 66.984 177.493 67.16 176.779 67.16ZM176.411 65.224C176.795 65.224 177.136 65.1387 177.435 64.968C177.733 64.7867 177.963 64.5413 178.123 64.232C178.293 63.912 178.379 63.544 178.379 63.128C178.379 62.7227 178.293 62.3653 178.123 62.056C177.963 61.736 177.733 61.4907 177.435 61.32C177.136 61.1387 176.795 61.048 176.411 61.048C176.037 61.048 175.701 61.1387 175.403 61.32C175.104 61.4907 174.869 61.736 174.699 62.056C174.539 62.3653 174.459 62.7227 174.459 63.128C174.459 63.544 174.539 63.912 174.699 64.232C174.869 64.5413 175.099 64.7867 175.387 64.968C175.685 65.1387 176.027 65.224 176.411 65.224ZM172.491 70.232V59.272H174.587V61.304L174.235 63.176L174.571 65.048V70.232H172.491ZM185.129 67.16C184.425 67.16 183.79 66.984 183.225 66.632C182.659 66.28 182.217 65.8 181.897 65.192C181.577 64.584 181.417 63.9013 181.417 63.144C181.417 62.376 181.577 61.688 181.897 61.08C182.217 60.472 182.659 59.992 183.225 59.64C183.79 59.288 184.425 59.112 185.129 59.112C185.683 59.112 186.179 59.224 186.617 59.448C187.054 59.672 187.401 59.9867 187.657 60.392C187.923 60.7867 188.067 61.2347 188.089 61.736V64.52C188.067 65.032 187.923 65.4853 187.657 65.88C187.401 66.2747 187.054 66.5893 186.617 66.824C186.179 67.048 185.683 67.16 185.129 67.16ZM185.513 65.224C186.099 65.224 186.574 65.032 186.937 64.648C187.299 64.2533 187.481 63.7467 187.481 63.128C187.481 62.7227 187.395 62.3653 187.225 62.056C187.065 61.736 186.835 61.4907 186.537 61.32C186.249 61.1387 185.907 61.048 185.513 61.048C185.129 61.048 184.787 61.1387 184.489 61.32C184.201 61.4907 183.971 61.736 183.801 62.056C183.641 62.3653 183.561 62.7227 183.561 63.128C183.561 63.544 183.641 63.912 183.801 64.232C183.971 64.5413 184.201 64.7867 184.489 64.968C184.787 65.1387 185.129 65.224 185.513 65.224ZM187.369 67V64.92L187.705 63.032L187.369 61.176V59.272H189.449V67H187.369ZM191.303 67V59.272H193.399V67H191.303ZM193.399 62.728L192.583 62.184C192.679 61.2347 192.956 60.488 193.415 59.944C193.874 59.3893 194.535 59.112 195.399 59.112C195.772 59.112 196.108 59.176 196.407 59.304C196.706 59.4213 196.978 59.6187 197.223 59.896L195.911 61.4C195.794 61.272 195.65 61.176 195.479 61.112C195.319 61.048 195.132 61.016 194.919 61.016C194.471 61.016 194.103 61.16 193.815 61.448C193.538 61.7253 193.399 62.152 193.399 62.728ZM199.142 67V56.056H201.238V67H199.142ZM197.334 61.112V59.272H203.046V61.112H197.334ZM206.657 67.064L203.425 59.272H205.697L207.841 65.224H207.073L209.297 59.272H211.585L208.145 67.048L206.657 67.064ZM204.513 70.232L206.865 65.256L208.145 67.048L206.737 70.232H204.513ZM212.194 63.864V61.96H217.73V63.864H212.194ZM222.24 67.176C221.803 67.176 221.371 67.1173 220.944 67C220.528 66.8827 220.144 66.7227 219.792 66.52C219.44 66.3067 219.136 66.0507 218.88 65.752L220.128 64.488C220.395 64.7867 220.704 65.0107 221.056 65.16C221.408 65.3093 221.798 65.384 222.224 65.384C222.566 65.384 222.822 65.336 222.992 65.24C223.174 65.144 223.264 65 223.264 64.808C223.264 64.5947 223.168 64.4293 222.976 64.312C222.795 64.1947 222.555 64.0987 222.256 64.024C221.958 63.9387 221.643 63.848 221.312 63.752C220.992 63.6453 220.683 63.512 220.384 63.352C220.086 63.1813 219.84 62.952 219.648 62.664C219.467 62.3653 219.376 61.9813 219.376 61.512C219.376 61.0213 219.494 60.5947 219.728 60.232C219.974 59.8693 220.32 59.5867 220.768 59.384C221.216 59.1813 221.744 59.08 222.352 59.08C222.992 59.08 223.568 59.192 224.08 59.416C224.603 59.64 225.035 59.976 225.376 60.424L224.112 61.688C223.878 61.4 223.611 61.192 223.312 61.064C223.024 60.936 222.71 60.872 222.368 60.872C222.059 60.872 221.819 60.92 221.648 61.016C221.488 61.112 221.408 61.2453 221.408 61.416C221.408 61.608 221.499 61.7573 221.68 61.864C221.872 61.9707 222.118 62.0667 222.416 62.152C222.715 62.2267 223.024 62.3173 223.344 62.424C223.675 62.52 223.984 62.6587 224.272 62.84C224.571 63.0213 224.811 63.2613 224.992 63.56C225.184 63.8587 225.28 64.2427 225.28 64.712C225.28 65.4693 225.008 66.072 224.464 66.52C223.92 66.9573 223.179 67.176 222.24 67.176ZM227.83 67V56.056H229.926V67H227.83ZM226.022 61.112V59.272H231.734V61.112H226.022ZM235.957 67.16C235.253 67.16 234.618 66.984 234.053 66.632C233.488 66.28 233.045 65.8 232.725 65.192C232.405 64.584 232.245 63.9013 232.245 63.144C232.245 62.376 232.405 61.688 232.725 61.08C233.045 60.472 233.488 59.992 234.053 59.64C234.618 59.288 235.253 59.112 235.957 59.112C236.512 59.112 237.008 59.224 237.445 59.448C237.882 59.672 238.229 59.9867 238.485 60.392C238.752 60.7867 238.896 61.2347 238.917 61.736V64.52C238.896 65.032 238.752 65.4853 238.485 65.88C238.229 66.2747 237.882 66.5893 237.445 66.824C237.008 67.048 236.512 67.16 235.957 67.16ZM236.341 65.224C236.928 65.224 237.402 65.032 237.765 64.648C238.128 64.2533 238.309 63.7467 238.309 63.128C238.309 62.7227 238.224 62.3653 238.053 62.056C237.893 61.736 237.664 61.4907 237.365 61.32C237.077 61.1387 236.736 61.048 236.341 61.048C235.957 61.048 235.616 61.1387 235.317 61.32C235.029 61.4907 234.8 61.736 234.629 62.056C234.469 62.3653 234.389 62.7227 234.389 63.128C234.389 63.544 234.469 63.912 234.629 64.232C234.8 64.5413 235.029 64.7867 235.317 64.968C235.616 65.1387 235.957 65.224 236.341 65.224ZM238.197 67V64.92L238.533 63.032L238.197 61.176V59.272H240.277V67H238.197ZM242.131 67V59.272H244.227V67H242.131ZM244.227 62.728L243.411 62.184C243.507 61.2347 243.784 60.488 244.243 59.944C244.702 59.3893 245.363 59.112 246.227 59.112C246.6 59.112 246.936 59.176 247.235 59.304C247.534 59.4213 247.806 59.6187 248.051 59.896L246.739 61.4C246.622 61.272 246.478 61.176 246.307 61.112C246.147 61.048 245.96 61.016 245.747 61.016C245.299 61.016 244.931 61.16 244.643 61.448C244.366 61.7253 244.227 62.152 244.227 62.728ZM249.97 67V56.056H252.066V67H249.97ZM248.162 61.112V59.272H253.874V61.112H248.162ZM258.562 67.16C257.751 67.16 257.031 66.9893 256.402 66.648C255.772 66.296 255.271 65.816 254.898 65.208C254.535 64.6 254.354 63.9067 254.354 63.128C254.354 62.36 254.53 61.6773 254.882 61.08C255.244 60.472 255.735 59.992 256.354 59.64C256.972 59.2773 257.66 59.096 258.418 59.096C259.164 59.096 259.82 59.2667 260.386 59.608C260.962 59.9387 261.41 60.3973 261.73 60.984C262.06 61.56 262.226 62.216 262.226 62.952C262.226 63.0907 262.215 63.2347 262.194 63.384C262.183 63.5227 262.156 63.6827 262.114 63.864L255.618 63.88V62.312L261.138 62.296L260.29 62.952C260.268 62.4933 260.183 62.1093 260.034 61.8C259.895 61.4907 259.687 61.256 259.41 61.096C259.143 60.9253 258.812 60.84 258.418 60.84C258.002 60.84 257.639 60.936 257.33 61.128C257.02 61.3093 256.78 61.5707 256.61 61.912C256.45 62.2427 256.37 62.6373 256.37 63.096C256.37 63.5653 256.455 63.976 256.626 64.328C256.807 64.6693 257.063 64.936 257.394 65.128C257.724 65.3093 258.108 65.4 258.546 65.4C258.94 65.4 259.298 65.336 259.618 65.208C259.938 65.0693 260.215 64.8667 260.45 64.6L261.682 65.832C261.308 66.2693 260.85 66.6 260.306 66.824C259.772 67.048 259.191 67.16 258.562 67.16ZM263.522 67V59.272H265.618V67H263.522ZM265.618 62.728L264.802 62.184C264.898 61.2347 265.175 60.488 265.634 59.944C266.092 59.3893 266.754 59.112 267.618 59.112C267.991 59.112 268.327 59.176 268.626 59.304C268.924 59.4213 269.196 59.6187 269.442 59.896L268.13 61.4C268.012 61.272 267.868 61.176 267.698 61.112C267.538 61.048 267.351 61.016 267.138 61.016C266.69 61.016 266.322 61.16 266.034 61.448C265.756 61.7253 265.618 62.152 265.618 62.728ZM272.662 67.176C272.225 67.176 271.793 67.1173 271.366 67C270.95 66.8827 270.566 66.7227 270.214 66.52C269.862 66.3067 269.558 66.0507 269.302 65.752L270.55 64.488C270.817 64.7867 271.126 65.0107 271.478 65.16C271.83 65.3093 272.219 65.384 272.646 65.384C272.987 65.384 273.243 65.336 273.414 65.24C273.595 65.144 273.686 65 273.686 64.808C273.686 64.5947 273.59 64.4293 273.398 64.312C273.217 64.1947 272.977 64.0987 272.678 64.024C272.379 63.9387 272.065 63.848 271.734 63.752C271.414 63.6453 271.105 63.512 270.806 63.352C270.507 63.1813 270.262 62.952 270.07 62.664C269.889 62.3653 269.798 61.9813 269.798 61.512C269.798 61.0213 269.915 60.5947 270.15 60.232C270.395 59.8693 270.742 59.5867 271.19 59.384C271.638 59.1813 272.166 59.08 272.774 59.08C273.414 59.08 273.99 59.192 274.502 59.416C275.025 59.64 275.457 59.976 275.798 60.424L274.534 61.688C274.299 61.4 274.033 61.192 273.734 61.064C273.446 60.936 273.131 60.872 272.79 60.872C272.481 60.872 272.241 60.92 272.07 61.016C271.91 61.112 271.83 61.2453 271.83 61.416C271.83 61.608 271.921 61.7573 272.102 61.864C272.294 61.9707 272.539 62.0667 272.838 62.152C273.137 62.2267 273.446 62.3173 273.766 62.424C274.097 62.52 274.406 62.6587 274.694 62.84C274.993 63.0213 275.233 63.2613 275.414 63.56C275.606 63.8587 275.702 64.2427 275.702 64.712C275.702 65.4693 275.43 66.072 274.886 66.52C274.342 66.9573 273.601 67.176 272.662 67.176Z" fill="black"/>
<rect x="154.5" y="300.5" width="398" height="77" rx="4.5" stroke="#DADADA"/>
<rect x="164" y="311" width="138" height="14" rx="7" fill="#D9D9D9"/>
<path d="M292.344 260.156C308.722 188.997 264.314 118.035 193.156 101.656C121.997 85.2775 51.0345 129.686 34.6559 200.844C18.2774 272.003 62.6854 342.966 133.844 359.344C205.003 375.723 275.965 331.315 292.344 260.156Z" fill="#83A9F4"/>
<mask id="mask6_32_468" style="mask-type:luminance" maskUnits="userSpaceOnUse" x="31" y="98" width="265" height="265">
<path d="M292.344 260.156C308.722 188.997 264.314 118.035 193.156 101.656C121.997 85.2775 51.0345 129.686 34.6559 200.844C18.2774 272.003 62.6854 342.966 133.844 359.344C205.003 375.723 275.965 331.315 292.344 260.156Z" fill="white"/>
</mask>
<g mask="url(#mask6_32_468)">
<path d="M111.851 287.609L106.239 359.305H60.7325C65.4795 348.174 71.045 334.775 76.1662 321.633C87.6947 291.935 109.583 287.96 111.687 287.632C111.804 287.609 111.851 287.609 111.851 287.609Z" fill="#111123"/>
<path d="M274.396 359.305H227.65L220.191 286.79C220.214 286.79 220.238 286.813 220.261 286.813C221.781 287.001 246.101 290.812 258.658 321.633C264.27 335.43 269.883 348.735 274.396 359.305Z" fill="#111123"/>
<path d="M232.374 359.305L163.512 372.992L102.544 359.305L102.778 291.561C105.42 289.924 108.554 288.637 111.687 287.632C119.194 285.247 126.536 284.569 126.536 284.569L167.412 288.684L208.288 284.569C208.288 284.569 213.83 285.083 220.191 286.79C220.214 286.79 220.238 286.814 220.261 286.814C224.236 287.866 228.539 289.409 232.023 291.561L232.374 359.305Z" fill="#111123"/>
<path d="M111.856 287.599L160.027 274.941H176.637L220.198 286.797C197.922 307.68 142.629 324.797 114.346 288.572L111.856 287.599Z" fill="#E8B499"/>
<path d="M237.696 243.515C237.24 239.71 237.542 235.81 238.498 232.143C243.36 213.51 237.799 197.642 227.98 185.784C219.099 175.057 216.884 159.186 216.884 159.186C210.36 137.691 188.257 122.777 168.142 122.777C148.024 122.777 125.989 136.831 119.467 158.326C119.467 158.326 116.523 175.342 108.301 185.781C98.7836 197.869 92.9211 213.51 97.7827 232.141C98.7392 235.807 99.0408 239.708 98.5825 243.513C98.2457 246.323 97.4787 249.24 95.8722 251.258H240.409C238.8 249.24 238.033 246.326 237.696 243.515Z" fill="#1E0B02"/>
<path d="M143.078 202.618C143.298 210.429 137.146 216.941 129.333 217.163C121.523 217.383 115.01 211.231 114.79 203.418C114.57 195.607 120.723 189.095 128.536 188.875C136.346 188.653 142.859 194.805 143.078 202.618Z" fill="#E8B499"/>
<path d="M120.903 201.028C120.903 201.028 126.529 198.287 131.891 208.062" stroke="#C47268" stroke-width="0.6887" stroke-miterlimit="10" stroke-linecap="round" stroke-linejoin="round"/>
<path d="M194.739 203.018C194.739 210.833 201.074 217.168 208.889 217.168C216.704 217.168 223.039 210.833 223.039 203.018C223.039 195.203 216.704 188.868 208.889 188.868C201.076 188.868 194.739 195.203 194.739 203.018Z" fill="#E8B499"/>
<path d="M216.863 200.803C216.863 200.803 211.162 198.222 206.078 208.146" stroke="#C47268" stroke-width="0.6887" stroke-miterlimit="10" stroke-linecap="round" stroke-linejoin="round"/>
<path d="M168.516 220.514C193.059 220.514 212.956 200.618 212.956 176.074C212.956 151.531 193.059 131.635 168.516 131.635C143.973 131.635 124.076 151.531 124.076 176.074C124.076 200.618 143.973 220.514 168.516 220.514Z" fill="#1E0B02"/>
<path d="M182.579 231.262C182.579 231.262 176.457 236.881 170.873 238.263C165.289 239.643 159.854 235.417 159.784 235.366C159.716 235.314 153.255 230.474 153.255 230.474L150.638 277.044L151.363 277.82C160.846 288.002 174.5 288.144 184.064 278.159L185.463 276.698L182.579 231.262Z" fill="#E8B499"/>
<path d="M148.847 224.319C148.847 224.319 156.702 251.531 170.719 251.264C182.242 251.045 185.439 225.67 185.439 225.67L148.847 224.319Z" fill="#1E0B02"/>
<path d="M207.11 176.561C207.187 191.868 204.97 205.09 202.737 214.476C200.55 223.666 194.3 230.114 185.446 235.321L183.835 236.271C174.467 241.782 162.331 241.969 152.764 236.755C143.116 231.493 136.346 224.527 134.223 214.689C130.362 196.793 129.85 176.954 129.85 176.954C129.85 176.954 126.623 135.549 168.296 136.089C209.962 136.627 207.11 176.561 207.11 176.561Z" fill="#E8B499"/>
<path d="M165.127 199.236V205.3H169.215" stroke="#C47268" stroke-width="0.6887" stroke-miterlimit="10" stroke-linecap="round" stroke-linejoin="round"/>
<path d="M136.823 176.219L158.856 174.234C158.856 174.234 156.882 168.526 147.975 169.452C138.86 170.397 136.823 176.219 136.823 176.219Z" fill="black"/>
<path d="M197.389 176.219L175.356 174.234C175.356 174.234 177.329 168.526 186.237 169.452C195.352 170.397 197.389 176.219 197.389 176.219Z" fill="black"/>
<path d="M155.142 210.894H179.2C179.2 210.894 178.276 217.168 166.741 217.168C157.273 217.168 155.142 210.894 155.142 210.894Z" fill="white"/>
<path d="M156.262 191.075C156.262 191.075 150.564 186.415 145.559 191.075" stroke="#1E0B02" stroke-width="0.9565" stroke-miterlimit="10" stroke-linecap="round" stroke-linejoin="round"/>
<path d="M188.465 191.075C188.465 191.075 184.001 186.293 178.036 191.075" stroke="#1E0B02" stroke-width="0.9565" stroke-miterlimit="10" stroke-linecap="round" stroke-linejoin="round"/>
<path opacity="0.23" d="M145.585 175.843L161.734 197.766C161.734 197.766 156.863 207.075 149.107 206.041L132.808 184.654C132.808 184.654 137.211 175.251 145.585 175.843Z" fill="white"/>
<path opacity="0.23" d="M185.303 175.843L201.453 197.766C201.453 197.766 196.582 207.075 188.825 206.041L172.526 184.654C172.526 184.654 176.93 175.251 185.303 175.843Z" fill="white"/>
<path d="M163.016 191.075C163.016 199.795 155.947 206.867 147.227 206.867C138.507 206.867 131.438 199.798 131.438 191.075C131.438 182.355 138.507 175.286 147.227 175.286C155.947 175.284 163.016 182.355 163.016 191.075Z" stroke="white" stroke-width="0.4927" stroke-miterlimit="10"/>
<path d="M202.779 191.075C202.779 199.795 195.71 206.867 186.99 206.867C178.27 206.867 171.2 199.798 171.2 191.075C171.2 182.355 178.27 175.286 186.99 175.286C195.707 175.284 202.779 182.355 202.779 191.075Z" stroke="white" stroke-width="0.4927" stroke-miterlimit="10"/>
<path d="M163.016 191.075C163.016 191.075 167.527 189.415 171.198 191.075" stroke="white" stroke-width="0.4927" stroke-miterlimit="10"/>
<path d="M125.832 167.151C125.832 167.151 162.976 160.079 170.646 132.355C170.646 132.355 131.131 118.336 125.832 167.151Z" fill="#1E0B02"/>
<path d="M207.109 167.151C207.109 167.151 169.966 160.079 162.296 132.355C162.296 132.355 201.813 118.336 207.109 167.151Z" fill="#1E0B02"/>
</g>
<g filter="url(#filter0_d_32_468)">
<rect x="255" y="100" width="256" height="144" rx="10" fill="white"/>
</g>
<path d="M256.402 169C249.045 189.74 244.086 196.761 221 203.809C255.318 231.003 298.577 189.922 285.663 182.416L256.402 169Z" fill="white"/>
<path d="M288.52 139.2C287.387 139.2 286.413 139.007 285.6 138.62C284.8 138.233 284.073 137.653 283.42 136.88L285.22 135.08C285.633 135.627 286.113 136.053 286.66 136.36C287.207 136.653 287.873 136.8 288.66 136.8C289.367 136.8 289.927 136.66 290.34 136.38C290.767 136.1 290.98 135.713 290.98 135.22C290.98 134.793 290.86 134.447 290.62 134.18C290.38 133.913 290.06 133.687 289.66 133.5C289.273 133.313 288.84 133.147 288.36 133C287.893 132.84 287.42 132.66 286.94 132.46C286.473 132.26 286.04 132.013 285.64 131.72C285.253 131.413 284.94 131.027 284.7 130.56C284.46 130.08 284.34 129.48 284.34 128.76C284.34 127.907 284.547 127.18 284.96 126.58C285.373 125.98 285.94 125.52 286.66 125.2C287.38 124.88 288.193 124.72 289.1 124.72C290.06 124.72 290.927 124.9 291.7 125.26C292.473 125.62 293.107 126.087 293.6 126.66L291.8 128.46C291.387 128.007 290.96 127.673 290.52 127.46C290.093 127.247 289.607 127.14 289.06 127.14C288.433 127.14 287.94 127.26 287.58 127.5C287.22 127.74 287.04 128.087 287.04 128.54C287.04 128.927 287.16 129.24 287.4 129.48C287.64 129.72 287.953 129.927 288.34 130.1C288.74 130.273 289.173 130.44 289.64 130.6C290.12 130.76 290.593 130.94 291.06 131.14C291.54 131.34 291.973 131.6 292.36 131.92C292.76 132.24 293.08 132.653 293.32 133.16C293.56 133.653 293.68 134.267 293.68 135C293.68 136.307 293.22 137.333 292.3 138.08C291.38 138.827 290.12 139.2 288.52 139.2ZM296.967 139V125.32H299.587V139H296.967ZM294.707 131.64V129.34H301.847V131.64H294.707ZM307.126 139.2C306.246 139.2 305.452 138.98 304.746 138.54C304.039 138.1 303.486 137.5 303.086 136.74C302.686 135.98 302.486 135.127 302.486 134.18C302.486 133.22 302.686 132.36 303.086 131.6C303.486 130.84 304.039 130.24 304.746 129.8C305.452 129.36 306.246 129.14 307.126 129.14C307.819 129.14 308.439 129.28 308.986 129.56C309.532 129.84 309.966 130.233 310.286 130.74C310.619 131.233 310.799 131.793 310.826 132.42V135.9C310.799 136.54 310.619 137.107 310.286 137.6C309.966 138.093 309.532 138.487 308.986 138.78C308.439 139.06 307.819 139.2 307.126 139.2ZM307.606 136.78C308.339 136.78 308.932 136.54 309.386 136.06C309.839 135.567 310.066 134.933 310.066 134.16C310.066 133.653 309.959 133.207 309.746 132.82C309.546 132.42 309.259 132.113 308.886 131.9C308.526 131.673 308.099 131.56 307.606 131.56C307.126 131.56 306.699 131.673 306.326 131.9C305.966 132.113 305.679 132.42 305.466 132.82C305.266 133.207 305.166 133.653 305.166 134.16C305.166 134.68 305.266 135.14 305.466 135.54C305.679 135.927 305.966 136.233 306.326 136.46C306.699 136.673 307.126 136.78 307.606 136.78ZM309.926 139V136.4L310.346 134.04L309.926 131.72V129.34H312.526V139H309.926ZM319.404 139.2C318.417 139.2 317.53 138.98 316.744 138.54C315.957 138.1 315.337 137.5 314.884 136.74C314.43 135.98 314.204 135.127 314.204 134.18C314.204 133.22 314.43 132.36 314.884 131.6C315.337 130.84 315.957 130.24 316.744 129.8C317.544 129.347 318.43 129.12 319.404 129.12C320.164 129.12 320.864 129.26 321.504 129.54C322.144 129.82 322.697 130.22 323.164 130.74L321.484 132.44C321.23 132.16 320.924 131.947 320.564 131.8C320.217 131.653 319.83 131.58 319.404 131.58C318.924 131.58 318.49 131.693 318.104 131.92C317.73 132.133 317.43 132.433 317.204 132.82C316.99 133.193 316.884 133.64 316.884 134.16C316.884 134.667 316.99 135.12 317.204 135.52C317.43 135.907 317.73 136.213 318.104 136.44C318.49 136.653 318.924 136.76 319.404 136.76C319.844 136.76 320.237 136.687 320.584 136.54C320.944 136.38 321.25 136.153 321.504 135.86L323.204 137.56C322.71 138.093 322.144 138.5 321.504 138.78C320.864 139.06 320.164 139.2 319.404 139.2ZM327.727 139.08L323.687 129.34H326.527L329.207 136.78H328.247L331.027 129.34H333.887L329.587 139.06L327.727 139.08ZM325.047 143.04L327.987 136.82L329.587 139.06L327.827 143.04H325.047ZM339.401 139V124.94H342.121V139H339.401ZM348.221 139V124.94H350.941V139H348.221ZM341.121 132.94V130.54H348.981V132.94H341.121ZM357.575 139.2C356.695 139.2 355.902 138.98 355.195 138.54C354.488 138.1 353.935 137.5 353.535 136.74C353.135 135.98 352.935 135.127 352.935 134.18C352.935 133.22 353.135 132.36 353.535 131.6C353.935 130.84 354.488 130.24 355.195 129.8C355.902 129.36 356.695 129.14 357.575 129.14C358.268 129.14 358.888 129.28 359.435 129.56C359.982 129.84 360.415 130.233 360.735 130.74C361.068 131.233 361.248 131.793 361.275 132.42V135.9C361.248 136.54 361.068 137.107 360.735 137.6C360.415 138.093 359.982 138.487 359.435 138.78C358.888 139.06 358.268 139.2 357.575 139.2ZM358.055 136.78C358.788 136.78 359.382 136.54 359.835 136.06C360.288 135.567 360.515 134.933 360.515 134.16C360.515 133.653 360.408 133.207 360.195 132.82C359.995 132.42 359.708 132.113 359.335 131.9C358.975 131.673 358.548 131.56 358.055 131.56C357.575 131.56 357.148 131.673 356.775 131.9C356.415 132.113 356.128 132.42 355.915 132.82C355.715 133.207 355.615 133.653 355.615 134.16C355.615 134.68 355.715 135.14 355.915 135.54C356.128 135.927 356.415 136.233 356.775 136.46C357.148 136.673 357.575 136.78 358.055 136.78ZM360.375 139V136.4L360.795 134.04L360.375 131.72V129.34H362.975V139H360.375ZM370.653 139.2C369.959 139.2 369.333 139.06 368.773 138.78C368.213 138.487 367.766 138.093 367.433 137.6C367.099 137.107 366.919 136.54 366.893 135.9V132.48C366.919 131.84 367.099 131.273 367.433 130.78C367.779 130.273 368.226 129.873 368.773 129.58C369.333 129.287 369.959 129.14 370.653 129.14C371.546 129.14 372.346 129.36 373.053 129.8C373.759 130.24 374.313 130.84 374.713 131.6C375.126 132.36 375.333 133.22 375.333 134.18C375.333 135.127 375.126 135.98 374.713 136.74C374.313 137.5 373.759 138.1 373.053 138.54C372.346 138.98 371.546 139.2 370.653 139.2ZM370.193 136.78C370.673 136.78 371.099 136.673 371.473 136.46C371.846 136.233 372.133 135.927 372.333 135.54C372.546 135.14 372.653 134.68 372.653 134.16C372.653 133.653 372.546 133.207 372.333 132.82C372.133 132.42 371.846 132.113 371.473 131.9C371.099 131.673 370.673 131.56 370.193 131.56C369.726 131.56 369.306 131.673 368.933 131.9C368.559 132.113 368.266 132.42 368.053 132.82C367.853 133.207 367.753 133.653 367.753 134.16C367.753 134.68 367.853 135.14 368.053 135.54C368.266 135.927 368.553 136.233 368.913 136.46C369.286 136.673 369.713 136.78 370.193 136.78ZM365.293 143.04V129.34H367.913V131.88L367.473 134.22L367.893 136.56V143.04H365.293ZM382.411 139.2C381.717 139.2 381.091 139.06 380.531 138.78C379.971 138.487 379.524 138.093 379.191 137.6C378.857 137.107 378.677 136.54 378.651 135.9V132.48C378.677 131.84 378.857 131.273 379.191 130.78C379.537 130.273 379.984 129.873 380.531 129.58C381.091 129.287 381.717 129.14 382.411 129.14C383.304 129.14 384.104 129.36 384.811 129.8C385.517 130.24 386.071 130.84 386.471 131.6C386.884 132.36 387.091 133.22 387.091 134.18C387.091 135.127 386.884 135.98 386.471 136.74C386.071 137.5 385.517 138.1 384.811 138.54C384.104 138.98 383.304 139.2 382.411 139.2ZM381.951 136.78C382.431 136.78 382.857 136.673 383.231 136.46C383.604 136.233 383.891 135.927 384.091 135.54C384.304 135.14 384.411 134.68 384.411 134.16C384.411 133.653 384.304 133.207 384.091 132.82C383.891 132.42 383.604 132.113 383.231 131.9C382.857 131.673 382.431 131.56 381.951 131.56C381.484 131.56 381.064 131.673 380.691 131.9C380.317 132.113 380.024 132.42 379.811 132.82C379.611 133.207 379.511 133.653 379.511 134.16C379.511 134.68 379.611 135.14 379.811 135.54C380.024 135.927 380.311 136.233 380.671 136.46C381.044 136.673 381.471 136.78 381.951 136.78ZM377.051 143.04V129.34H379.671V131.88L379.231 134.22L379.651 136.56V143.04H377.051ZM392.128 139.22C391.582 139.22 391.042 139.147 390.508 139C389.988 138.853 389.508 138.653 389.068 138.4C388.628 138.133 388.248 137.813 387.928 137.44L389.488 135.86C389.822 136.233 390.208 136.513 390.648 136.7C391.088 136.887 391.575 136.98 392.108 136.98C392.535 136.98 392.855 136.92 393.068 136.8C393.295 136.68 393.408 136.5 393.408 136.26C393.408 135.993 393.288 135.787 393.048 135.64C392.822 135.493 392.522 135.373 392.148 135.28C391.775 135.173 391.382 135.06 390.968 134.94C390.568 134.807 390.182 134.64 389.808 134.44C389.435 134.227 389.128 133.94 388.888 133.58C388.662 133.207 388.548 132.727 388.548 132.14C388.548 131.527 388.695 130.993 388.988 130.54C389.295 130.087 389.728 129.733 390.288 129.48C390.848 129.227 391.508 129.1 392.268 129.1C393.068 129.1 393.788 129.24 394.428 129.52C395.082 129.8 395.622 130.22 396.048 130.78L394.468 132.36C394.175 132 393.842 131.74 393.468 131.58C393.108 131.42 392.715 131.34 392.288 131.34C391.902 131.34 391.602 131.4 391.388 131.52C391.188 131.64 391.088 131.807 391.088 132.02C391.088 132.26 391.202 132.447 391.428 132.58C391.668 132.713 391.975 132.833 392.348 132.94C392.722 133.033 393.108 133.147 393.508 133.28C393.922 133.4 394.308 133.573 394.668 133.8C395.042 134.027 395.342 134.327 395.568 134.7C395.808 135.073 395.928 135.553 395.928 136.14C395.928 137.087 395.588 137.84 394.908 138.4C394.228 138.947 393.302 139.22 392.128 139.22Z" fill="black"/>
<path d="M287.788 167V154.868H289.48V167H287.788ZM283.54 156.056V154.508H293.71V156.056H283.54ZM301.486 167V162.014C301.486 161.366 301.282 160.832 300.874 160.412C300.466 159.992 299.938 159.782 299.29 159.782C298.858 159.782 298.474 159.878 298.138 160.07C297.802 160.262 297.538 160.526 297.346 160.862C297.154 161.198 297.058 161.582 297.058 162.014L296.392 161.636C296.392 160.988 296.536 160.412 296.824 159.908C297.112 159.404 297.514 159.008 298.03 158.72C298.546 158.42 299.128 158.27 299.776 158.27C300.424 158.27 300.994 158.414 301.486 158.702C301.99 158.99 302.386 159.392 302.674 159.908C302.962 160.424 303.106 161.018 303.106 161.69V167H301.486ZM295.438 167V154.148H297.058V167H295.438ZM309.259 167.18C308.407 167.18 307.639 166.988 306.955 166.604C306.271 166.208 305.731 165.674 305.335 165.002C304.939 164.33 304.741 163.568 304.741 162.716C304.741 161.876 304.933 161.12 305.317 160.448C305.713 159.776 306.241 159.248 306.901 158.864C307.573 158.468 308.323 158.27 309.151 158.27C309.943 158.27 310.639 158.45 311.239 158.81C311.851 159.17 312.325 159.668 312.661 160.304C313.009 160.94 313.183 161.66 313.183 162.464C313.183 162.584 313.177 162.716 313.165 162.86C313.153 162.992 313.129 163.148 313.093 163.328H305.875V161.978H312.229L311.635 162.5C311.635 161.924 311.533 161.438 311.329 161.042C311.125 160.634 310.837 160.322 310.465 160.106C310.093 159.878 309.643 159.764 309.115 159.764C308.563 159.764 308.077 159.884 307.657 160.124C307.237 160.364 306.913 160.7 306.685 161.132C306.457 161.564 306.343 162.074 306.343 162.662C306.343 163.262 306.463 163.79 306.703 164.246C306.943 164.69 307.285 165.038 307.729 165.29C308.173 165.53 308.683 165.65 309.259 165.65C309.739 165.65 310.177 165.566 310.573 165.398C310.981 165.23 311.329 164.978 311.617 164.642L312.661 165.704C312.253 166.184 311.749 166.55 311.149 166.802C310.561 167.054 309.931 167.18 309.259 167.18ZM323.194 167.18C322.546 167.18 321.958 167.048 321.43 166.784C320.914 166.508 320.5 166.13 320.188 165.65C319.876 165.17 319.702 164.624 319.666 164.012V161.438C319.702 160.814 319.876 160.268 320.188 159.8C320.512 159.32 320.932 158.948 321.448 158.684C321.976 158.408 322.558 158.27 323.194 158.27C323.974 158.27 324.676 158.468 325.3 158.864C325.936 159.26 326.434 159.794 326.794 160.466C327.154 161.138 327.334 161.894 327.334 162.734C327.334 163.574 327.154 164.33 326.794 165.002C326.434 165.674 325.936 166.208 325.3 166.604C324.676 166.988 323.974 167.18 323.194 167.18ZM322.924 165.65C323.464 165.65 323.938 165.524 324.346 165.272C324.754 165.02 325.078 164.678 325.318 164.246C325.558 163.802 325.678 163.292 325.678 162.716C325.678 162.152 325.558 161.648 325.318 161.204C325.078 160.76 324.754 160.418 324.346 160.178C323.938 159.926 323.47 159.8 322.942 159.8C322.402 159.8 321.928 159.926 321.52 160.178C321.112 160.418 320.794 160.76 320.566 161.204C320.338 161.648 320.224 162.158 320.224 162.734C320.224 163.298 320.332 163.802 320.548 164.246C320.776 164.678 321.094 165.02 321.502 165.272C321.922 165.524 322.396 165.65 322.924 165.65ZM318.694 170.582V158.45H320.314V160.7L320.008 162.77L320.314 164.858V170.582H318.694ZM332.806 167.18C332.026 167.18 331.318 166.988 330.682 166.604C330.046 166.208 329.542 165.674 329.17 165.002C328.81 164.33 328.63 163.574 328.63 162.734C328.63 161.894 328.81 161.138 329.17 160.466C329.542 159.794 330.04 159.26 330.664 158.864C331.3 158.468 332.014 158.27 332.806 158.27C333.454 158.27 334.03 158.408 334.534 158.684C335.05 158.948 335.464 159.32 335.776 159.8C336.088 160.268 336.262 160.814 336.298 161.438V164.012C336.262 164.624 336.088 165.17 335.776 165.65C335.476 166.13 335.068 166.508 334.552 166.784C334.048 167.048 333.466 167.18 332.806 167.18ZM333.076 165.65C333.88 165.65 334.528 165.38 335.02 164.84C335.512 164.288 335.758 163.586 335.758 162.734C335.758 162.146 335.644 161.636 335.416 161.204C335.2 160.76 334.888 160.418 334.48 160.178C334.072 159.926 333.598 159.8 333.058 159.8C332.518 159.8 332.038 159.926 331.618 160.178C331.21 160.43 330.886 160.778 330.646 161.222C330.418 161.654 330.304 162.152 330.304 162.716C330.304 163.292 330.418 163.802 330.646 164.246C330.886 164.678 331.216 165.02 331.636 165.272C332.056 165.524 332.536 165.65 333.076 165.65ZM335.65 167V164.696L335.956 162.608L335.65 160.538V158.45H337.288V167H335.65ZM339.647 167V158.45H341.267V167H339.647ZM341.267 162.122L340.655 161.852C340.655 160.76 340.907 159.89 341.411 159.242C341.915 158.594 342.641 158.27 343.589 158.27C344.021 158.27 344.411 158.348 344.759 158.504C345.107 158.648 345.431 158.894 345.731 159.242L344.669 160.34C344.489 160.148 344.291 160.01 344.075 159.926C343.859 159.842 343.607 159.8 343.319 159.8C342.719 159.8 342.227 159.992 341.843 160.376C341.459 160.76 341.267 161.342 341.267 162.122ZM348.15 167V154.868H349.77V167H348.15ZM346.044 159.926V158.45H351.876V159.926H346.044ZM356.271 167.072L352.563 158.45H354.363L357.117 165.2H356.541L359.439 158.45H361.239L357.243 167.072H356.271ZM353.823 170.582L356.343 165.416L357.243 167.072L355.623 170.582H353.823ZM366.472 167V158.45H368.092V167H366.472ZM367.282 156.74C366.982 156.74 366.736 156.644 366.544 156.452C366.352 156.248 366.256 155.996 366.256 155.696C366.256 155.408 366.352 155.168 366.544 154.976C366.736 154.772 366.982 154.67 367.282 154.67C367.582 154.67 367.828 154.772 368.02 154.976C368.212 155.168 368.308 155.408 368.308 155.696C368.308 155.996 368.212 156.248 368.02 156.452C367.828 156.644 367.582 156.74 367.282 156.74ZM373.197 167.18C372.717 167.18 372.261 167.12 371.829 167C371.409 166.868 371.019 166.688 370.659 166.46C370.299 166.22 369.987 165.938 369.723 165.614L370.767 164.57C371.079 164.954 371.439 165.242 371.847 165.434C372.255 165.614 372.711 165.704 373.215 165.704C373.719 165.704 374.109 165.62 374.385 165.452C374.661 165.272 374.799 165.026 374.799 164.714C374.799 164.402 374.685 164.162 374.457 163.994C374.241 163.814 373.959 163.67 373.611 163.562C373.263 163.442 372.891 163.328 372.495 163.22C372.111 163.1 371.745 162.95 371.397 162.77C371.049 162.59 370.761 162.344 370.533 162.032C370.317 161.72 370.209 161.306 370.209 160.79C370.209 160.274 370.335 159.83 370.587 159.458C370.839 159.074 371.187 158.78 371.631 158.576C372.087 158.372 372.633 158.27 373.269 158.27C373.941 158.27 374.535 158.39 375.051 158.63C375.579 158.858 376.011 159.206 376.347 159.674L375.303 160.718C375.063 160.406 374.763 160.166 374.403 159.998C374.055 159.83 373.659 159.746 373.215 159.746C372.747 159.746 372.387 159.83 372.135 159.998C371.895 160.154 371.775 160.376 371.775 160.664C371.775 160.952 371.883 161.174 372.099 161.33C372.315 161.486 372.597 161.618 372.945 161.726C373.305 161.834 373.677 161.948 374.061 162.068C374.445 162.176 374.811 162.326 375.159 162.518C375.507 162.71 375.789 162.968 376.005 163.292C376.233 163.616 376.347 164.042 376.347 164.57C376.347 165.374 376.059 166.01 375.483 166.478C374.919 166.946 374.157 167.18 373.197 167.18ZM380.825 170.762C380.273 170.762 379.811 170.672 379.439 170.492C379.055 170.312 378.713 170.054 378.413 169.718L379.457 168.656C379.625 168.86 379.811 169.01 380.015 169.106C380.207 169.202 380.441 169.25 380.717 169.25C381.077 169.25 381.389 169.136 381.653 168.908C381.917 168.692 382.049 168.362 382.049 167.918V158.45H383.669V167.9C383.669 168.524 383.537 169.046 383.273 169.466C383.009 169.886 382.661 170.204 382.229 170.42C381.797 170.648 381.329 170.762 380.825 170.762ZM382.877 156.74C382.589 156.74 382.349 156.644 382.157 156.452C381.965 156.248 381.869 155.996 381.869 155.696C381.869 155.408 381.965 155.168 382.157 154.976C382.349 154.772 382.589 154.67 382.877 154.67C383.177 154.67 383.423 154.772 383.615 154.976C383.807 155.168 383.903 155.408 383.903 155.696C383.903 155.996 383.807 156.248 383.615 156.452C383.423 156.644 383.177 156.74 382.877 156.74ZM389.491 167.18C388.795 167.18 388.165 167.024 387.601 166.712C387.049 166.388 386.617 165.944 386.305 165.38C385.993 164.816 385.837 164.162 385.837 163.418V158.45H387.457V163.346C387.457 163.814 387.535 164.222 387.691 164.57C387.859 164.906 388.099 165.164 388.411 165.344C388.723 165.524 389.089 165.614 389.509 165.614C390.145 165.614 390.643 165.416 391.003 165.02C391.363 164.612 391.543 164.054 391.543 163.346V158.45H393.163V163.418C393.163 164.162 393.007 164.816 392.695 165.38C392.383 165.944 391.951 166.388 391.399 166.712C390.859 167.024 390.223 167.18 389.491 167.18ZM398.052 167.18C397.572 167.18 397.116 167.12 396.684 167C396.264 166.868 395.874 166.688 395.514 166.46C395.154 166.22 394.842 165.938 394.578 165.614L395.622 164.57C395.934 164.954 396.294 165.242 396.702 165.434C397.11 165.614 397.566 165.704 398.07 165.704C398.574 165.704 398.964 165.62 399.24 165.452C399.516 165.272 399.654 165.026 399.654 164.714C399.654 164.402 399.54 164.162 399.312 163.994C399.096 163.814 398.814 163.67 398.466 163.562C398.118 163.442 397.746 163.328 397.35 163.22C396.966 163.1 396.6 162.95 396.252 162.77C395.904 162.59 395.616 162.344 395.388 162.032C395.172 161.72 395.064 161.306 395.064 160.79C395.064 160.274 395.19 159.83 395.442 159.458C395.694 159.074 396.042 158.78 396.486 158.576C396.942 158.372 397.488 158.27 398.124 158.27C398.796 158.27 399.39 158.39 399.906 158.63C400.434 158.858 400.866 159.206 401.202 159.674L400.158 160.718C399.918 160.406 399.618 160.166 399.258 159.998C398.91 159.83 398.514 159.746 398.07 159.746C397.602 159.746 397.242 159.83 396.99 159.998C396.75 160.154 396.63 160.376 396.63 160.664C396.63 160.952 396.738 161.174 396.954 161.33C397.17 161.486 397.452 161.618 397.8 161.726C398.16 161.834 398.532 161.948 398.916 162.068C399.3 162.176 399.666 162.326 400.014 162.518C400.362 162.71 400.644 162.968 400.86 163.292C401.088 163.616 401.202 164.042 401.202 164.57C401.202 165.374 400.914 166.01 400.338 166.478C399.774 166.946 399.012 167.18 398.052 167.18ZM404.33 167V154.868H405.95V167H404.33ZM402.224 159.926V158.45H408.056V159.926H402.224ZM417.023 167.18C416.243 167.18 415.535 166.988 414.899 166.604C414.263 166.208 413.759 165.674 413.387 165.002C413.027 164.33 412.847 163.574 412.847 162.734C412.847 161.894 413.027 161.138 413.387 160.466C413.759 159.794 414.257 159.26 414.881 158.864C415.517 158.468 416.231 158.27 417.023 158.27C417.671 158.27 418.247 158.408 418.751 158.684C419.267 158.948 419.681 159.32 419.993 159.8C420.305 160.268 420.479 160.814 420.515 161.438V164.012C420.479 164.624 420.305 165.17 419.993 165.65C419.693 166.13 419.285 166.508 418.769 166.784C418.265 167.048 417.683 167.18 417.023 167.18ZM417.293 165.65C418.097 165.65 418.745 165.38 419.237 164.84C419.729 164.288 419.975 163.586 419.975 162.734C419.975 162.146 419.861 161.636 419.633 161.204C419.417 160.76 419.105 160.418 418.697 160.178C418.289 159.926 417.815 159.8 417.275 159.8C416.735 159.8 416.255 159.926 415.835 160.178C415.427 160.43 415.103 160.778 414.863 161.222C414.635 161.654 414.521 162.152 414.521 162.716C414.521 163.292 414.635 163.802 414.863 164.246C415.103 164.678 415.433 165.02 415.853 165.272C416.273 165.524 416.753 165.65 417.293 165.65ZM419.867 167V164.696L420.173 162.608L419.867 160.538V158.45H421.505V167H419.867ZM428.364 167.18C427.716 167.18 427.128 167.048 426.6 166.784C426.084 166.508 425.67 166.13 425.358 165.65C425.046 165.17 424.872 164.624 424.836 164.012V161.438C424.872 160.814 425.046 160.268 425.358 159.8C425.682 159.32 426.102 158.948 426.618 158.684C427.146 158.408 427.728 158.27 428.364 158.27C429.144 158.27 429.846 158.468 430.47 158.864C431.106 159.26 431.604 159.794 431.964 160.466C432.324 161.138 432.504 161.894 432.504 162.734C432.504 163.574 432.324 164.33 431.964 165.002C431.604 165.674 431.106 166.208 430.47 166.604C429.846 166.988 429.144 167.18 428.364 167.18ZM428.094 165.65C428.634 165.65 429.108 165.524 429.516 165.272C429.924 165.02 430.248 164.678 430.488 164.246C430.728 163.802 430.848 163.292 430.848 162.716C430.848 162.152 430.728 161.648 430.488 161.204C430.248 160.76 429.924 160.418 429.516 160.178C429.108 159.926 428.64 159.8 428.112 159.8C427.572 159.8 427.098 159.926 426.69 160.178C426.282 160.418 425.964 160.76 425.736 161.204C425.508 161.648 425.394 162.158 425.394 162.734C425.394 163.298 425.502 163.802 425.718 164.246C425.946 164.678 426.264 165.02 426.672 165.272C427.092 165.524 427.566 165.65 428.094 165.65ZM423.864 167V154.148H425.484V160.538L425.178 162.608L425.484 164.696V167H423.864ZM438.246 167.18C437.406 167.18 436.65 166.982 435.978 166.586C435.306 166.19 434.772 165.656 434.376 164.984C433.98 164.3 433.782 163.538 433.782 162.698C433.782 161.87 433.98 161.126 434.376 160.466C434.772 159.794 435.306 159.26 435.978 158.864C436.65 158.468 437.406 158.27 438.246 158.27C439.074 158.27 439.824 158.468 440.496 158.864C441.18 159.248 441.72 159.776 442.116 160.448C442.512 161.12 442.71 161.87 442.71 162.698C442.71 163.538 442.512 164.3 442.116 164.984C441.72 165.656 441.18 166.19 440.496 166.586C439.824 166.982 439.074 167.18 438.246 167.18ZM438.246 165.614C438.786 165.614 439.266 165.488 439.686 165.236C440.106 164.984 440.436 164.642 440.676 164.21C440.916 163.766 441.036 163.262 441.036 162.698C441.036 162.146 440.91 161.654 440.658 161.222C440.418 160.79 440.088 160.454 439.668 160.214C439.26 159.962 438.786 159.836 438.246 159.836C437.706 159.836 437.226 159.962 436.806 160.214C436.386 160.454 436.056 160.79 435.816 161.222C435.576 161.654 435.456 162.146 435.456 162.698C435.456 163.262 435.576 163.766 435.816 164.21C436.056 164.642 436.386 164.984 436.806 165.236C437.226 165.488 437.706 165.614 438.246 165.614ZM447.974 167.18C447.278 167.18 446.648 167.024 446.084 166.712C445.532 166.388 445.1 165.944 444.788 165.38C444.476 164.816 444.32 164.162 444.32 163.418V158.45H445.94V163.346C445.94 163.814 446.018 164.222 446.174 164.57C446.342 164.906 446.582 165.164 446.894 165.344C447.206 165.524 447.572 165.614 447.992 165.614C448.628 165.614 449.126 165.416 449.486 165.02C449.846 164.612 450.026 164.054 450.026 163.346V158.45H451.646V163.418C451.646 164.162 451.49 164.816 451.178 165.38C450.866 165.944 450.434 166.388 449.882 166.712C449.342 167.024 448.706 167.18 447.974 167.18ZM455.131 167V154.868H456.751V167H455.131ZM453.025 159.926V158.45H458.857V159.926H453.025ZM465.502 167V154.868H467.122V167H465.502ZM463.396 159.926V158.45H469.228V159.926H463.396ZM474.457 167.18C473.617 167.18 472.861 166.982 472.189 166.586C471.517 166.19 470.983 165.656 470.587 164.984C470.191 164.3 469.993 163.538 469.993 162.698C469.993 161.87 470.191 161.126 470.587 160.466C470.983 159.794 471.517 159.26 472.189 158.864C472.861 158.468 473.617 158.27 474.457 158.27C475.285 158.27 476.035 158.468 476.707 158.864C477.391 159.248 477.931 159.776 478.327 160.448C478.723 161.12 478.921 161.87 478.921 162.698C478.921 163.538 478.723 164.3 478.327 164.984C477.931 165.656 477.391 166.19 476.707 166.586C476.035 166.982 475.285 167.18 474.457 167.18ZM474.457 165.614C474.997 165.614 475.477 165.488 475.897 165.236C476.317 164.984 476.647 164.642 476.887 164.21C477.127 163.766 477.247 163.262 477.247 162.698C477.247 162.146 477.121 161.654 476.869 161.222C476.629 160.79 476.299 160.454 475.879 160.214C475.471 159.962 474.997 159.836 474.457 159.836C473.917 159.836 473.437 159.962 473.017 160.214C472.597 160.454 472.267 160.79 472.027 161.222C471.787 161.654 471.667 162.146 471.667 162.698C471.667 163.262 471.787 163.766 472.027 164.21C472.267 164.642 472.597 164.984 473.017 165.236C473.437 165.488 473.917 165.614 474.457 165.614ZM286.906 190.18C286.426 190.18 285.97 190.12 285.538 190C285.118 189.868 284.728 189.688 284.368 189.46C284.008 189.22 283.696 188.938 283.432 188.614L284.476 187.57C284.788 187.954 285.148 188.242 285.556 188.434C285.964 188.614 286.42 188.704 286.924 188.704C287.428 188.704 287.818 188.62 288.094 188.452C288.37 188.272 288.508 188.026 288.508 187.714C288.508 187.402 288.394 187.162 288.166 186.994C287.95 186.814 287.668 186.67 287.32 186.562C286.972 186.442 286.6 186.328 286.204 186.22C285.82 186.1 285.454 185.95 285.106 185.77C284.758 185.59 284.47 185.344 284.242 185.032C284.026 184.72 283.918 184.306 283.918 183.79C283.918 183.274 284.044 182.83 284.296 182.458C284.548 182.074 284.896 181.78 285.34 181.576C285.796 181.372 286.342 181.27 286.978 181.27C287.65 181.27 288.244 181.39 288.76 181.63C289.288 181.858 289.72 182.206 290.056 182.674L289.012 183.718C288.772 183.406 288.472 183.166 288.112 182.998C287.764 182.83 287.368 182.746 286.924 182.746C286.456 182.746 286.096 182.83 285.844 182.998C285.604 183.154 285.484 183.376 285.484 183.664C285.484 183.952 285.592 184.174 285.808 184.33C286.024 184.486 286.306 184.618 286.654 184.726C287.014 184.834 287.386 184.948 287.77 185.068C288.154 185.176 288.52 185.326 288.868 185.518C289.216 185.71 289.498 185.968 289.714 186.292C289.942 186.616 290.056 187.042 290.056 187.57C290.056 188.374 289.768 189.01 289.192 189.478C288.628 189.946 287.866 190.18 286.906 190.18ZM293.184 190V177.868H294.804V190H293.184ZM291.078 182.926V181.45H296.91V182.926H291.078ZM301.869 190.18C301.089 190.18 300.381 189.988 299.745 189.604C299.109 189.208 298.605 188.674 298.233 188.002C297.873 187.33 297.693 186.574 297.693 185.734C297.693 184.894 297.873 184.138 298.233 183.466C298.605 182.794 299.103 182.26 299.727 181.864C300.363 181.468 301.077 181.27 301.869 181.27C302.517 181.27 303.093 181.408 303.597 181.684C304.113 181.948 304.527 182.32 304.839 182.8C305.151 183.268 305.325 183.814 305.361 184.438V187.012C305.325 187.624 305.151 188.17 304.839 188.65C304.539 189.13 304.131 189.508 303.615 189.784C303.111 190.048 302.529 190.18 301.869 190.18ZM302.139 188.65C302.943 188.65 303.591 188.38 304.083 187.84C304.575 187.288 304.821 186.586 304.821 185.734C304.821 185.146 304.707 184.636 304.479 184.204C304.263 183.76 303.951 183.418 303.543 183.178C303.135 182.926 302.661 182.8 302.121 182.8C301.581 182.8 301.101 182.926 300.681 183.178C300.273 183.43 299.949 183.778 299.709 184.222C299.481 184.654 299.367 185.152 299.367 185.716C299.367 186.292 299.481 186.802 299.709 187.246C299.949 187.678 300.279 188.02 300.699 188.272C301.119 188.524 301.599 188.65 302.139 188.65ZM304.713 190V187.696L305.019 185.608L304.713 183.538V181.45H306.351V190H304.713ZM308.709 190V181.45H310.329V190H308.709ZM310.329 185.122L309.717 184.852C309.717 183.76 309.969 182.89 310.473 182.242C310.977 181.594 311.703 181.27 312.651 181.27C313.083 181.27 313.473 181.348 313.821 181.504C314.169 181.648 314.493 181.894 314.793 182.242L313.731 183.34C313.551 183.148 313.353 183.01 313.137 182.926C312.921 182.842 312.669 182.8 312.381 182.8C311.781 182.8 311.289 182.992 310.905 183.376C310.521 183.76 310.329 184.342 310.329 185.122ZM317.213 190V177.868H318.833V190H317.213ZM315.107 182.926V181.45H320.939V182.926H315.107ZM323.333 190.18C322.997 190.18 322.715 190.066 322.487 189.838C322.271 189.598 322.163 189.316 322.163 188.992C322.163 188.656 322.271 188.38 322.487 188.164C322.715 187.936 322.997 187.822 323.333 187.822C323.669 187.822 323.945 187.936 324.161 188.164C324.389 188.38 324.503 188.656 324.503 188.992C324.503 189.316 324.389 189.598 324.161 189.838C323.945 190.066 323.669 190.18 323.333 190.18ZM332.958 190.18C332.238 190.18 331.602 190.042 331.05 189.766C330.51 189.478 330.066 189.094 329.718 188.614L330.906 187.516C331.134 187.852 331.416 188.11 331.752 188.29C332.1 188.47 332.484 188.56 332.904 188.56C333.324 188.56 333.696 188.47 334.02 188.29C334.344 188.11 334.596 187.846 334.776 187.498C334.968 187.138 335.064 186.7 335.064 186.184V177.508H336.756V186.094C336.756 186.922 336.588 187.642 336.252 188.254C335.928 188.866 335.478 189.34 334.902 189.676C334.338 190.012 333.69 190.18 332.958 190.18ZM343.184 190.18C342.344 190.18 341.588 189.982 340.916 189.586C340.244 189.19 339.71 188.656 339.314 187.984C338.918 187.3 338.72 186.538 338.72 185.698C338.72 184.87 338.918 184.126 339.314 183.466C339.71 182.794 340.244 182.26 340.916 181.864C341.588 181.468 342.344 181.27 343.184 181.27C344.012 181.27 344.762 181.468 345.434 181.864C346.118 182.248 346.658 182.776 347.054 183.448C347.45 184.12 347.648 184.87 347.648 185.698C347.648 186.538 347.45 187.3 347.054 187.984C346.658 188.656 346.118 189.19 345.434 189.586C344.762 189.982 344.012 190.18 343.184 190.18ZM343.184 188.614C343.724 188.614 344.204 188.488 344.624 188.236C345.044 187.984 345.374 187.642 345.614 187.21C345.854 186.766 345.974 186.262 345.974 185.698C345.974 185.146 345.848 184.654 345.596 184.222C345.356 183.79 345.026 183.454 344.606 183.214C344.198 182.962 343.724 182.836 343.184 182.836C342.644 182.836 342.164 182.962 341.744 183.214C341.324 183.454 340.994 183.79 340.754 184.222C340.514 184.654 340.394 185.146 340.394 185.698C340.394 186.262 340.514 186.766 340.754 187.21C340.994 187.642 341.324 187.984 341.744 188.236C342.164 188.488 342.644 188.614 343.184 188.614ZM349.491 190V181.45H351.111V190H349.491ZM350.301 179.74C350.001 179.74 349.755 179.644 349.563 179.452C349.371 179.248 349.275 178.996 349.275 178.696C349.275 178.408 349.371 178.168 349.563 177.976C349.755 177.772 350.001 177.67 350.301 177.67C350.601 177.67 350.847 177.772 351.039 177.976C351.231 178.168 351.327 178.408 351.327 178.696C351.327 178.996 351.231 179.248 351.039 179.452C350.847 179.644 350.601 179.74 350.301 179.74ZM359.547 190V185.014C359.547 184.366 359.343 183.832 358.935 183.412C358.527 182.992 357.999 182.782 357.351 182.782C356.919 182.782 356.535 182.878 356.199 183.07C355.863 183.262 355.599 183.526 355.407 183.862C355.215 184.198 355.119 184.582 355.119 185.014L354.453 184.636C354.453 183.988 354.597 183.412 354.885 182.908C355.173 182.404 355.575 182.008 356.091 181.72C356.607 181.42 357.189 181.27 357.837 181.27C358.485 181.27 359.055 181.432 359.547 181.756C360.051 182.08 360.447 182.506 360.735 183.034C361.023 183.55 361.167 184.102 361.167 184.69V190H359.547ZM353.499 190V181.45H355.119V190H353.499ZM370.542 190.18C369.846 190.18 369.216 190.024 368.652 189.712C368.1 189.388 367.668 188.944 367.356 188.38C367.044 187.816 366.888 187.162 366.888 186.418V181.45H368.508V186.346C368.508 186.814 368.586 187.222 368.742 187.57C368.91 187.906 369.15 188.164 369.462 188.344C369.774 188.524 370.14 188.614 370.56 188.614C371.196 188.614 371.694 188.416 372.054 188.02C372.414 187.612 372.594 187.054 372.594 186.346V181.45H374.214V186.418C374.214 187.162 374.058 187.816 373.746 188.38C373.434 188.944 373.002 189.388 372.45 189.712C371.91 190.024 371.274 190.18 370.542 190.18ZM379.103 190.18C378.623 190.18 378.167 190.12 377.735 190C377.315 189.868 376.925 189.688 376.565 189.46C376.205 189.22 375.893 188.938 375.629 188.614L376.673 187.57C376.985 187.954 377.345 188.242 377.753 188.434C378.161 188.614 378.617 188.704 379.121 188.704C379.625 188.704 380.015 188.62 380.291 188.452C380.567 188.272 380.705 188.026 380.705 187.714C380.705 187.402 380.591 187.162 380.363 186.994C380.147 186.814 379.865 186.67 379.517 186.562C379.169 186.442 378.797 186.328 378.401 186.22C378.017 186.1 377.651 185.95 377.303 185.77C376.955 185.59 376.667 185.344 376.439 185.032C376.223 184.72 376.115 184.306 376.115 183.79C376.115 183.274 376.241 182.83 376.493 182.458C376.745 182.074 377.093 181.78 377.537 181.576C377.993 181.372 378.539 181.27 379.175 181.27C379.847 181.27 380.441 181.39 380.957 181.63C381.485 181.858 381.917 182.206 382.253 182.674L381.209 183.718C380.969 183.406 380.669 183.166 380.309 182.998C379.961 182.83 379.565 182.746 379.121 182.746C378.653 182.746 378.293 182.83 378.041 182.998C377.801 183.154 377.681 183.376 377.681 183.664C377.681 183.952 377.789 184.174 378.005 184.33C378.221 184.486 378.503 184.618 378.851 184.726C379.211 184.834 379.583 184.948 379.967 185.068C380.351 185.176 380.717 185.326 381.065 185.518C381.413 185.71 381.695 185.968 381.911 186.292C382.139 186.616 382.253 187.042 382.253 187.57C382.253 188.374 381.965 189.01 381.389 189.478C380.825 189.946 380.063 190.18 379.103 190.18ZM389.035 190V180.172C389.035 179.536 389.173 178.984 389.449 178.516C389.725 178.036 390.103 177.658 390.583 177.382C391.075 177.106 391.645 176.968 392.293 176.968C392.785 176.968 393.211 177.052 393.571 177.22C393.931 177.388 394.261 177.634 394.561 177.958L393.499 179.002C393.343 178.834 393.169 178.708 392.977 178.624C392.785 178.528 392.551 178.48 392.275 178.48C391.759 178.48 391.357 178.63 391.069 178.93C390.793 179.23 390.655 179.644 390.655 180.172V190H389.035ZM386.929 182.926V181.45H393.373V182.926H386.929ZM398.414 190.18C397.574 190.18 396.818 189.982 396.146 189.586C395.474 189.19 394.94 188.656 394.544 187.984C394.148 187.3 393.95 186.538 393.95 185.698C393.95 184.87 394.148 184.126 394.544 183.466C394.94 182.794 395.474 182.26 396.146 181.864C396.818 181.468 397.574 181.27 398.414 181.27C399.242 181.27 399.992 181.468 400.664 181.864C401.348 182.248 401.888 182.776 402.284 183.448C402.68 184.12 402.878 184.87 402.878 185.698C402.878 186.538 402.68 187.3 402.284 187.984C401.888 188.656 401.348 189.19 400.664 189.586C399.992 189.982 399.242 190.18 398.414 190.18ZM398.414 188.614C398.954 188.614 399.434 188.488 399.854 188.236C400.274 187.984 400.604 187.642 400.844 187.21C401.084 186.766 401.204 186.262 401.204 185.698C401.204 185.146 401.078 184.654 400.826 184.222C400.586 183.79 400.256 183.454 399.836 183.214C399.428 182.962 398.954 182.836 398.414 182.836C397.874 182.836 397.394 182.962 396.974 183.214C396.554 183.454 396.224 183.79 395.984 184.222C395.744 184.654 395.624 185.146 395.624 185.698C395.624 186.262 395.744 186.766 395.984 187.21C396.224 187.642 396.554 187.984 396.974 188.236C397.394 188.488 397.874 188.614 398.414 188.614ZM404.704 190V181.45H406.324V190H404.704ZM406.324 185.122L405.712 184.852C405.712 183.76 405.964 182.89 406.468 182.242C406.972 181.594 407.698 181.27 408.646 181.27C409.078 181.27 409.468 181.348 409.816 181.504C410.164 181.648 410.488 181.894 410.788 182.242L409.726 183.34C409.546 183.148 409.348 183.01 409.132 182.926C408.916 182.842 408.664 182.8 408.376 182.8C407.776 182.8 407.284 182.992 406.9 183.376C406.516 183.76 406.324 184.342 406.324 185.122ZM419.625 190.18C418.845 190.18 418.137 189.988 417.501 189.604C416.865 189.208 416.361 188.674 415.989 188.002C415.629 187.33 415.449 186.574 415.449 185.734C415.449 184.894 415.629 184.138 415.989 183.466C416.361 182.794 416.859 182.26 417.483 181.864C418.119 181.468 418.833 181.27 419.625 181.27C420.273 181.27 420.849 181.408 421.353 181.684C421.869 181.948 422.283 182.32 422.595 182.8C422.907 183.268 423.081 183.814 423.117 184.438V187.012C423.081 187.624 422.907 188.17 422.595 188.65C422.295 189.13 421.887 189.508 421.371 189.784C420.867 190.048 420.285 190.18 419.625 190.18ZM419.895 188.65C420.699 188.65 421.347 188.38 421.839 187.84C422.331 187.288 422.577 186.586 422.577 185.734C422.577 185.146 422.463 184.636 422.235 184.204C422.019 183.76 421.707 183.418 421.299 183.178C420.891 182.926 420.417 182.8 419.877 182.8C419.337 182.8 418.857 182.926 418.437 183.178C418.029 183.43 417.705 183.778 417.465 184.222C417.237 184.654 417.123 185.152 417.123 185.716C417.123 186.292 417.237 186.802 417.465 187.246C417.705 187.678 418.035 188.02 418.455 188.272C418.875 188.524 419.355 188.65 419.895 188.65ZM422.469 190V187.696L422.775 185.608L422.469 183.538V181.45H424.107V190H422.469ZM432.513 190V185.014C432.513 184.366 432.309 183.832 431.901 183.412C431.493 182.992 430.965 182.782 430.317 182.782C429.885 182.782 429.501 182.878 429.165 183.07C428.829 183.262 428.565 183.526 428.373 183.862C428.181 184.198 428.085 184.582 428.085 185.014L427.419 184.636C427.419 183.988 427.563 183.412 427.851 182.908C428.139 182.404 428.541 182.008 429.057 181.72C429.573 181.42 430.155 181.27 430.803 181.27C431.451 181.27 432.021 181.432 432.513 181.756C433.017 182.08 433.413 182.506 433.701 183.034C433.989 183.55 434.133 184.102 434.133 184.69V190H432.513ZM426.465 190V181.45H428.085V190H426.465ZM287.626 213.18C286.93 213.18 286.3 213.024 285.736 212.712C285.184 212.388 284.752 211.944 284.44 211.38C284.128 210.816 283.972 210.162 283.972 209.418V204.45H285.592V209.346C285.592 209.814 285.67 210.222 285.826 210.57C285.994 210.906 286.234 211.164 286.546 211.344C286.858 211.524 287.224 211.614 287.644 211.614C288.28 211.614 288.778 211.416 289.138 211.02C289.498 210.612 289.678 210.054 289.678 209.346V204.45H291.298V209.418C291.298 210.162 291.142 210.816 290.83 211.38C290.518 211.944 290.086 212.388 289.534 212.712C288.994 213.024 288.358 213.18 287.626 213.18ZM299.517 213V208.014C299.517 207.366 299.313 206.832 298.905 206.412C298.497 205.992 297.969 205.782 297.321 205.782C296.889 205.782 296.505 205.878 296.169 206.07C295.833 206.262 295.569 206.526 295.377 206.862C295.185 207.198 295.089 207.582 295.089 208.014L294.423 207.636C294.423 206.988 294.567 206.412 294.855 205.908C295.143 205.404 295.545 205.008 296.061 204.72C296.577 204.42 297.159 204.27 297.807 204.27C298.455 204.27 299.025 204.432 299.517 204.756C300.021 205.08 300.417 205.506 300.705 206.034C300.993 206.55 301.137 207.102 301.137 207.69V213H299.517ZM293.469 213V204.45H295.089V213H293.469ZM304.449 213V203.172C304.449 202.536 304.587 201.984 304.863 201.516C305.139 201.036 305.517 200.658 305.997 200.382C306.489 200.106 307.059 199.968 307.707 199.968C308.199 199.968 308.625 200.052 308.985 200.22C309.345 200.388 309.675 200.634 309.975 200.958L308.913 202.002C308.757 201.834 308.583 201.708 308.391 201.624C308.199 201.528 307.965 201.48 307.689 201.48C307.173 201.48 306.771 201.63 306.483 201.93C306.207 202.23 306.069 202.644 306.069 203.172V213H304.449ZM302.343 205.926V204.45H308.787V205.926H302.343ZM313.828 213.18C312.988 213.18 312.232 212.982 311.56 212.586C310.888 212.19 310.354 211.656 309.958 210.984C309.562 210.3 309.364 209.538 309.364 208.698C309.364 207.87 309.562 207.126 309.958 206.466C310.354 205.794 310.888 205.26 311.56 204.864C312.232 204.468 312.988 204.27 313.828 204.27C314.656 204.27 315.406 204.468 316.078 204.864C316.762 205.248 317.302 205.776 317.698 206.448C318.094 207.12 318.292 207.87 318.292 208.698C318.292 209.538 318.094 210.3 317.698 210.984C317.302 211.656 316.762 212.19 316.078 212.586C315.406 212.982 314.656 213.18 313.828 213.18ZM313.828 211.614C314.368 211.614 314.848 211.488 315.268 211.236C315.688 210.984 316.018 210.642 316.258 210.21C316.498 209.766 316.618 209.262 316.618 208.698C316.618 208.146 316.492 207.654 316.24 207.222C316 206.79 315.67 206.454 315.25 206.214C314.842 205.962 314.368 205.836 313.828 205.836C313.288 205.836 312.808 205.962 312.388 206.214C311.968 206.454 311.638 206.79 311.398 207.222C311.158 207.654 311.038 208.146 311.038 208.698C311.038 209.262 311.158 209.766 311.398 210.21C311.638 210.642 311.968 210.984 312.388 211.236C312.808 211.488 313.288 211.614 313.828 211.614ZM320.118 213V204.45H321.738V213H320.118ZM321.738 208.122L321.126 207.852C321.126 206.76 321.378 205.89 321.882 205.242C322.386 204.594 323.112 204.27 324.06 204.27C324.492 204.27 324.882 204.348 325.23 204.504C325.578 204.648 325.902 204.894 326.202 205.242L325.14 206.34C324.96 206.148 324.762 206.01 324.546 205.926C324.33 205.842 324.078 205.8 323.79 205.8C323.19 205.8 322.698 205.992 322.314 206.376C321.93 206.76 321.738 207.342 321.738 208.122ZM330.607 216.762C329.731 216.762 328.951 216.6 328.267 216.276C327.595 215.952 327.055 215.496 326.647 214.908L327.691 213.846C328.039 214.29 328.453 214.626 328.933 214.854C329.413 215.094 329.983 215.214 330.643 215.214C331.519 215.214 332.209 214.98 332.713 214.512C333.229 214.056 333.487 213.438 333.487 212.658V210.534L333.775 208.608L333.487 206.7V204.45H335.107V212.658C335.107 213.474 334.915 214.188 334.531 214.8C334.159 215.412 333.631 215.892 332.947 216.24C332.275 216.588 331.495 216.762 330.607 216.762ZM330.607 212.856C329.827 212.856 329.125 212.67 328.501 212.298C327.889 211.926 327.403 211.416 327.043 210.768C326.683 210.108 326.503 209.37 326.503 208.554C326.503 207.738 326.683 207.012 327.043 206.376C327.403 205.728 327.889 205.218 328.501 204.846C329.125 204.462 329.827 204.27 330.607 204.27C331.279 204.27 331.873 204.402 332.389 204.666C332.905 204.93 333.313 205.302 333.613 205.782C333.925 206.25 334.093 206.802 334.117 207.438V209.706C334.081 210.33 333.907 210.882 333.595 211.362C333.295 211.83 332.887 212.196 332.371 212.46C331.855 212.724 331.267 212.856 330.607 212.856ZM330.931 211.326C331.459 211.326 331.921 211.212 332.317 210.984C332.725 210.756 333.037 210.438 333.253 210.03C333.469 209.61 333.577 209.124 333.577 208.572C333.577 208.02 333.463 207.54 333.235 207.132C333.019 206.712 332.713 206.388 332.317 206.16C331.921 205.92 331.453 205.8 330.913 205.8C330.373 205.8 329.899 205.92 329.491 206.16C329.083 206.388 328.759 206.712 328.519 207.132C328.291 207.54 328.177 208.014 328.177 208.554C328.177 209.094 328.291 209.574 328.519 209.994C328.759 210.414 329.083 210.744 329.491 210.984C329.911 211.212 330.391 211.326 330.931 211.326ZM341.445 213.18C340.593 213.18 339.825 212.988 339.141 212.604C338.457 212.208 337.917 211.674 337.521 211.002C337.125 210.33 336.927 209.568 336.927 208.716C336.927 207.876 337.119 207.12 337.503 206.448C337.899 205.776 338.427 205.248 339.087 204.864C339.759 204.468 340.509 204.27 341.337 204.27C342.129 204.27 342.825 204.45 343.425 204.81C344.037 205.17 344.511 205.668 344.847 206.304C345.195 206.94 345.369 207.66 345.369 208.464C345.369 208.584 345.363 208.716 345.351 208.86C345.339 208.992 345.315 209.148 345.279 209.328H338.061V207.978H344.415L343.821 208.5C343.821 207.924 343.719 207.438 343.515 207.042C343.311 206.634 343.023 206.322 342.651 206.106C342.279 205.878 341.829 205.764 341.301 205.764C340.749 205.764 340.263 205.884 339.843 206.124C339.423 206.364 339.099 206.7 338.871 207.132C338.643 207.564 338.529 208.074 338.529 208.662C338.529 209.262 338.649 209.79 338.889 210.246C339.129 210.69 339.471 211.038 339.915 211.29C340.359 211.53 340.869 211.65 341.445 211.65C341.925 211.65 342.363 211.566 342.759 211.398C343.167 211.23 343.515 210.978 343.803 210.642L344.847 211.704C344.439 212.184 343.935 212.55 343.335 212.802C342.747 213.054 342.117 213.18 341.445 213.18ZM348.449 213V200.868H350.069V213H348.449ZM346.343 205.926V204.45H357.269V205.926H346.343ZM353.543 213V200.868H355.163V213H353.543ZM362.232 213.18C361.452 213.18 360.744 212.988 360.108 212.604C359.472 212.208 358.968 211.674 358.596 211.002C358.236 210.33 358.056 209.574 358.056 208.734C358.056 207.894 358.236 207.138 358.596 206.466C358.968 205.794 359.466 205.26 360.09 204.864C360.726 204.468 361.44 204.27 362.232 204.27C362.88 204.27 363.456 204.408 363.96 204.684C364.476 204.948 364.89 205.32 365.202 205.8C365.514 206.268 365.688 206.814 365.724 207.438V210.012C365.688 210.624 365.514 211.17 365.202 211.65C364.902 212.13 364.494 212.508 363.978 212.784C363.474 213.048 362.892 213.18 362.232 213.18ZM362.502 211.65C363.306 211.65 363.954 211.38 364.446 210.84C364.938 210.288 365.184 209.586 365.184 208.734C365.184 208.146 365.07 207.636 364.842 207.204C364.626 206.76 364.314 206.418 363.906 206.178C363.498 205.926 363.024 205.8 362.484 205.8C361.944 205.8 361.464 205.926 361.044 206.178C360.636 206.43 360.312 206.778 360.072 207.222C359.844 207.654 359.73 208.152 359.73 208.716C359.73 209.292 359.844 209.802 360.072 210.246C360.312 210.678 360.642 211.02 361.062 211.272C361.482 211.524 361.962 211.65 362.502 211.65ZM365.076 213V210.696L365.382 208.608L365.076 206.538V204.45H366.714V213H365.076ZM373.573 213.18C372.925 213.18 372.337 213.048 371.809 212.784C371.293 212.508 370.879 212.13 370.567 211.65C370.255 211.17 370.081 210.624 370.045 210.012V207.438C370.081 206.814 370.255 206.268 370.567 205.8C370.891 205.32 371.311 204.948 371.827 204.684C372.355 204.408 372.937 204.27 373.573 204.27C374.353 204.27 375.055 204.468 375.679 204.864C376.315 205.26 376.813 205.794 377.173 206.466C377.533 207.138 377.713 207.894 377.713 208.734C377.713 209.574 377.533 210.33 377.173 211.002C376.813 211.674 376.315 212.208 375.679 212.604C375.055 212.988 374.353 213.18 373.573 213.18ZM373.303 211.65C373.843 211.65 374.317 211.524 374.725 211.272C375.133 211.02 375.457 210.678 375.697 210.246C375.937 209.802 376.057 209.292 376.057 208.716C376.057 208.152 375.937 207.648 375.697 207.204C375.457 206.76 375.133 206.418 374.725 206.178C374.317 205.926 373.849 205.8 373.321 205.8C372.781 205.8 372.307 205.926 371.899 206.178C371.491 206.418 371.173 206.76 370.945 207.204C370.717 207.648 370.603 208.158 370.603 208.734C370.603 209.298 370.711 209.802 370.927 210.246C371.155 210.678 371.473 211.02 371.881 211.272C372.301 211.524 372.775 211.65 373.303 211.65ZM369.073 213V200.148H370.693V206.538L370.387 208.608L370.693 210.696V213H369.073ZM379.549 213V200.148H381.169V213H379.549ZM387.5 213.18C386.648 213.18 385.88 212.988 385.196 212.604C384.512 212.208 383.972 211.674 383.576 211.002C383.18 210.33 382.982 209.568 382.982 208.716C382.982 207.876 383.174 207.12 383.558 206.448C383.954 205.776 384.482 205.248 385.142 204.864C385.814 204.468 386.564 204.27 387.392 204.27C388.184 204.27 388.88 204.45 389.48 204.81C390.092 205.17 390.566 205.668 390.902 206.304C391.25 206.94 391.424 207.66 391.424 208.464C391.424 208.584 391.418 208.716 391.406 208.86C391.394 208.992 391.37 209.148 391.334 209.328H384.116V207.978H390.47L389.876 208.5C389.876 207.924 389.774 207.438 389.57 207.042C389.366 206.634 389.078 206.322 388.706 206.106C388.334 205.878 387.884 205.764 387.356 205.764C386.804 205.764 386.318 205.884 385.898 206.124C385.478 206.364 385.154 206.7 384.926 207.132C384.698 207.564 384.584 208.074 384.584 208.662C384.584 209.262 384.704 209.79 384.944 210.246C385.184 210.69 385.526 211.038 385.97 211.29C386.414 211.53 386.924 211.65 387.5 211.65C387.98 211.65 388.418 211.566 388.814 211.398C389.222 211.23 389.57 210.978 389.858 210.642L390.902 211.704C390.494 212.184 389.99 212.55 389.39 212.802C388.802 213.054 388.172 213.18 387.5 213.18ZM400.552 213.18C399.76 213.18 399.052 212.988 398.428 212.604C397.804 212.208 397.306 211.674 396.934 211.002C396.574 210.33 396.394 209.574 396.394 208.734C396.394 207.894 396.574 207.138 396.934 206.466C397.306 205.794 397.804 205.26 398.428 204.864C399.052 204.468 399.76 204.27 400.552 204.27C401.188 204.27 401.764 204.408 402.28 204.684C402.796 204.948 403.21 205.32 403.522 205.8C403.846 206.268 404.026 206.814 404.062 207.438V210.012C404.026 210.624 403.852 211.17 403.54 211.65C403.228 212.13 402.814 212.508 402.298 212.784C401.782 213.048 401.2 213.18 400.552 213.18ZM400.822 211.65C401.362 211.65 401.83 211.524 402.226 211.272C402.634 211.02 402.952 210.678 403.18 210.246C403.408 209.802 403.522 209.298 403.522 208.734C403.522 208.146 403.402 207.636 403.162 207.204C402.934 206.772 402.616 206.43 402.208 206.178C401.812 205.926 401.344 205.8 400.804 205.8C400.264 205.8 399.79 205.926 399.382 206.178C398.974 206.43 398.65 206.778 398.41 207.222C398.182 207.654 398.068 208.152 398.068 208.716C398.068 209.292 398.182 209.802 398.41 210.246C398.65 210.678 398.974 211.02 399.382 211.272C399.802 211.524 400.282 211.65 400.822 211.65ZM405.052 213H403.414V210.696L403.72 208.608L403.414 206.538V200.148H405.052V213ZM411.047 213.18C410.267 213.18 409.559 212.988 408.923 212.604C408.287 212.208 407.783 211.674 407.411 211.002C407.051 210.33 406.871 209.574 406.871 208.734C406.871 207.894 407.051 207.138 407.411 206.466C407.783 205.794 408.281 205.26 408.905 204.864C409.541 204.468 410.255 204.27 411.047 204.27C411.695 204.27 412.271 204.408 412.775 204.684C413.291 204.948 413.705 205.32 414.017 205.8C414.329 206.268 414.503 206.814 414.539 207.438V210.012C414.503 210.624 414.329 211.17 414.017 211.65C413.717 212.13 413.309 212.508 412.793 212.784C412.289 213.048 411.707 213.18 411.047 213.18ZM411.317 211.65C412.121 211.65 412.769 211.38 413.261 210.84C413.753 210.288 413.999 209.586 413.999 208.734C413.999 208.146 413.885 207.636 413.657 207.204C413.441 206.76 413.129 206.418 412.721 206.178C412.313 205.926 411.839 205.8 411.299 205.8C410.759 205.8 410.279 205.926 409.859 206.178C409.451 206.43 409.127 206.778 408.887 207.222C408.659 207.654 408.545 208.152 408.545 208.716C408.545 209.292 408.659 209.802 408.887 210.246C409.127 210.678 409.457 211.02 409.877 211.272C410.297 211.524 410.777 211.65 411.317 211.65ZM413.891 213V210.696L414.197 208.608L413.891 206.538V204.45H415.529V213H413.891ZM420.695 213.072L416.987 204.45H418.787L421.541 211.2H420.965L423.863 204.45H425.663L421.667 213.072H420.695ZM418.247 216.582L420.767 211.416L421.667 213.072L420.047 216.582H418.247ZM434.783 213.18C433.943 213.18 433.187 212.982 432.515 212.586C431.843 212.19 431.309 211.656 430.913 210.984C430.517 210.3 430.319 209.538 430.319 208.698C430.319 207.87 430.517 207.126 430.913 206.466C431.309 205.794 431.843 205.26 432.515 204.864C433.187 204.468 433.943 204.27 434.783 204.27C435.611 204.27 436.361 204.468 437.033 204.864C437.717 205.248 438.257 205.776 438.653 206.448C439.049 207.12 439.247 207.87 439.247 208.698C439.247 209.538 439.049 210.3 438.653 210.984C438.257 211.656 437.717 212.19 437.033 212.586C436.361 212.982 435.611 213.18 434.783 213.18ZM434.783 211.614C435.323 211.614 435.803 211.488 436.223 211.236C436.643 210.984 436.973 210.642 437.213 210.21C437.453 209.766 437.573 209.262 437.573 208.698C437.573 208.146 437.447 207.654 437.195 207.222C436.955 206.79 436.625 206.454 436.205 206.214C435.797 205.962 435.323 205.836 434.783 205.836C434.243 205.836 433.763 205.962 433.343 206.214C432.923 206.454 432.593 206.79 432.353 207.222C432.113 207.654 431.993 208.146 431.993 208.698C431.993 209.262 432.113 209.766 432.353 210.21C432.593 210.642 432.923 210.984 433.343 211.236C433.763 211.488 434.243 211.614 434.783 211.614ZM442.033 213V203.172C442.033 202.536 442.171 201.984 442.447 201.516C442.723 201.036 443.101 200.658 443.581 200.382C444.073 200.106 444.643 199.968 445.291 199.968C445.783 199.968 446.209 200.052 446.569 200.22C446.929 200.388 447.259 200.634 447.559 200.958L446.497 202.002C446.341 201.834 446.167 201.708 445.975 201.624C445.783 201.528 445.549 201.48 445.273 201.48C444.757 201.48 444.355 201.63 444.067 201.93C443.791 202.23 443.653 202.644 443.653 203.172V213H442.033ZM439.927 205.926V204.45H446.371V205.926H439.927ZM452.967 213V203.172C452.967 202.536 453.105 201.984 453.381 201.516C453.657 201.036 454.035 200.658 454.515 200.382C455.007 200.106 455.577 199.968 456.225 199.968C456.717 199.968 457.143 200.052 457.503 200.22C457.863 200.388 458.193 200.634 458.493 200.958L457.431 202.002C457.275 201.834 457.101 201.708 456.909 201.624C456.717 201.528 456.483 201.48 456.207 201.48C455.691 201.48 455.289 201.63 455.001 201.93C454.725 202.23 454.587 202.644 454.587 203.172V213H452.967ZM450.861 205.926V204.45H457.305V205.926H450.861ZM462.37 213.18C461.674 213.18 461.044 213.024 460.48 212.712C459.928 212.388 459.496 211.944 459.184 211.38C458.872 210.816 458.716 210.162 458.716 209.418V204.45H460.336V209.346C460.336 209.814 460.414 210.222 460.57 210.57C460.738 210.906 460.978 211.164 461.29 211.344C461.602 211.524 461.968 211.614 462.388 211.614C463.024 211.614 463.522 211.416 463.882 211.02C464.242 210.612 464.422 210.054 464.422 209.346V204.45H466.042V209.418C466.042 210.162 465.886 210.816 465.574 211.38C465.262 211.944 464.83 212.388 464.278 212.712C463.738 213.024 463.102 213.18 462.37 213.18ZM474.261 213V208.014C474.261 207.366 474.057 206.832 473.649 206.412C473.241 205.992 472.713 205.782 472.065 205.782C471.633 205.782 471.249 205.878 470.913 206.07C470.577 206.262 470.313 206.526 470.121 206.862C469.929 207.198 469.833 207.582 469.833 208.014L469.167 207.636C469.167 206.988 469.311 206.412 469.599 205.908C469.887 205.404 470.289 205.008 470.805 204.72C471.321 204.42 471.903 204.27 472.551 204.27C473.199 204.27 473.769 204.432 474.261 204.756C474.765 205.08 475.161 205.506 475.449 206.034C475.737 206.55 475.881 207.102 475.881 207.69V213H474.261ZM468.213 213V204.45H469.833V213H468.213ZM478.561 209.04L478.327 200.148H480.055L479.821 209.04H478.561ZM479.173 213.18C478.837 213.18 478.561 213.066 478.345 212.838C478.129 212.61 478.021 212.328 478.021 211.992C478.021 211.656 478.129 211.38 478.345 211.164C478.561 210.936 478.837 210.822 479.173 210.822C479.521 210.822 479.803 210.936 480.019 211.164C480.235 211.38 480.343 211.656 480.343 211.992C480.343 212.328 480.235 212.61 480.019 212.838C479.803 213.066 479.521 213.18 479.173 213.18Z" fill="#7D7B7B"/>
<defs>
<filter id="filter0_d_32_468" x="251" y="96" width="266" height="154" filterUnits="userSpaceOnUse" color-interpolation-filters="sRGB">
<feFlood flood-opacity="0" result="BackgroundImageFix"/>
<feColorMatrix in="SourceAlpha" type="matrix" values="0 0 0 0 0 0 0 0 0 0 0 0 0 0 0 0 0 0 127 0" result="hardAlpha"/>
<feOffset dx="1" dy="1"/>
<feGaussianBlur stdDeviation="2.5"/>
<feComposite in2="hardAlpha" operator="out"/>
<feColorMatrix type="matrix" values="0 0 0 0 0 0 0 0 0 0 0 0 0 0 0 0 0 0 0.1 0"/>
<feBlend mode="normal" in2="BackgroundImageFix" result="effect1_dropShadow_32_468"/>
<feBlend mode="normal" in="SourceGraphic" in2="effect1_dropShadow_32_468" result="shape"/>
</filter>
</defs>
</svg>
