<svg width="200" height="200" viewBox="0 0 200 200" fill="none" xmlns="http://www.w3.org/2000/svg">
<g clip-path="url(#clip0_20_99)">
<rect width="200" height="200" rx="20" fill="white" fill-opacity="0.25"/>
<path fill-rule="evenodd" clip-rule="evenodd" d="M24.4827 51.1306C22.9206 47.8142 25.3402 44 29.006 44H70.6053C72.5631 44 74.3407 45.1426 75.1538 46.9235L91.9224 83.6549C92.5245 84.9737 92.5245 86.489 91.9224 87.8078L71.7098 132.083C69.9419 135.956 64.452 135.988 62.638 132.137L24.4827 51.1306ZM114.703 149.97C113.41 152.716 115.414 155.876 118.45 155.876V155.876C121.465 155.876 123.469 152.757 122.217 150.015V150.015C120.753 146.807 116.206 146.78 114.703 149.97V149.97Z" fill="#5A8CF0" fill-opacity="0.74902"/>
<path d="M122.747 46.9236C123.56 45.1427 125.338 44.0001 127.296 44.0001H168.895C172.561 44.0001 174.98 47.8143 173.418 51.1306L125.434 153.006C124.609 154.758 122.846 155.876 120.91 155.876H80.7874C77.1474 155.876 74.7273 152.11 76.2389 148.799L122.747 46.9236Z" fill="#1C1C47"/>
</g>
<defs>
<clipPath id="clip0_20_99">
<rect width="200" height="200" fill="white"/>
</clipPath>
</defs>
</svg>
