<svg width="200" height="200" viewBox="0 0 200 200" fill="none" xmlns="http://www.w3.org/2000/svg">
<path fill-rule="evenodd" clip-rule="evenodd" d="M6.06157 38.1306C4.49951 34.8142 6.91909 31 10.5849 31H64.4306C66.3883 31 68.166 32.1426 68.979 33.9235L90.1752 80.3533C90.7773 81.6721 90.7773 83.1874 90.1752 84.5062L64.0042 141.833C62.2363 145.706 56.7464 145.738 54.9325 141.887L6.06157 38.1306ZM117.961 161.745C116.399 165.061 118.818 168.876 122.484 168.876H122.809C126.449 168.876 128.869 165.11 127.357 161.799L127.197 161.449C125.429 157.577 119.939 157.544 118.125 161.395L117.961 161.745Z" fill="#5A8CF0" fill-opacity="0.74902"/>
<path d="M128.254 33.9236C129.067 32.1427 130.844 31.0001 132.802 31.0001H186.648C190.314 31.0001 192.733 34.8143 191.171 38.1306L130.94 166.006C130.115 167.758 128.353 168.876 126.417 168.876H74.4242C70.7842 168.876 68.3641 165.11 69.8758 161.799L128.254 33.9236Z" fill="#1C1C47"/>
</svg>
